STARTFONT 2.1
COMMENT
COMMENT Converted from OpenType font "Giilbert.ttf" by "otf2bdf 3.0".
COMMENT
FONT -FreeType-Giilbert-Medium-R-Normal--30-300-72-72-P-95-ISO10646-1
SIZE 30 72 72
FONTBOUNDINGBOX 31 31 -2 -6
STARTPROPERTIES 19
FOUNDRY "FreeType"
FAMILY_NAME "Giilbert"
WEIGHT_NAME "Medium"
SLANT "R"
SETWIDTH_NAME "Normal"
ADD_STYLE_NAME ""
PIXEL_SIZE 30
POINT_SIZE 300
RESOLUTION_X 72
RESOLUTION_Y 72
SPACING "P"
AVERAGE_WIDTH 95
CHARSET_REGISTRY "ISO10646"
CHARSET_ENCODING "1"
FONT_ASCENT 24
FONT_DESCENT 6
COPYRIGHT "-FreeType-Giilbert-Medium-R-Normal--30-300-72-72-P-95-ISO10646-1"
_OTF_FONTFILE "Giilbert.ttf"
_OTF_PSNAME "Giilbert-Medium"
ENDPROPERTIES
CHARS 355
STARTCHAR 0020
ENCODING 32
SWIDTH 233 0
DWIDTH 7 0
BBX 0 0 0 0
BITMAP
ENDCHAR
STARTCHAR 0021
ENCODING 33
SWIDTH 166 0
DWIDTH 5 0
BBX 3 24 0 0
BITMAP
E0
E0
E0
E0
E0
E0
E0
E0
E0
E0
E0
E0
E0
E0
E0
E0
E0
E0
00
00
00
E0
E0
E0
ENDCHAR
STARTCHAR 0022
ENCODING 34
SWIDTH 300 0
DWIDTH 9 0
BBX 7 6 0 17
BITMAP
EE
EE
EE
EE
EE
EE
ENDCHAR
STARTCHAR 0023
ENCODING 35
SWIDTH 600 0
DWIDTH 18 0
BBX 16 24 0 0
BITMAP
071C
071C
071C
071C
071C
7FFF
7FFF
7FFF
0E38
0E38
0E38
0E38
1C70
1C70
1C70
1C70
FFFE
FFFE
FFFE
38E0
38E0
38E0
38E0
38E0
ENDCHAR
STARTCHAR 0024
ENCODING 36
SWIDTH 633 0
DWIDTH 19 0
BBX 17 26 0 -1
BITMAP
01C000
0FF800
3FFE00
7FFF00
71C700
E1C000
E1C000
E1C000
E1C000
E1C000
71C000
7FF800
3FFE00
1FFF00
01C700
01C380
01C380
01C380
01C380
E1C380
E1C380
71C700
7FFF00
3FFE00
0FF800
01C000
ENDCHAR
STARTCHAR 0025
ENCODING 37
SWIDTH 866 0
DWIDTH 26 0
BBX 25 24 0 0
BITMAP
1E000F00
7F801E00
7F803C00
E1C07800
E1C0F000
E1C0F000
E1C1E000
E1C3C000
7F878000
7F8F0000
1E0F0000
001E0000
003C0000
00783C00
00F0FF00
00F0FF00
01E1C380
03C1C380
0781C380
0F01C380
0F01C380
1E00FF00
3C00FF00
78003C00
ENDCHAR
STARTCHAR 0026
ENCODING 38
SWIDTH 33 0
DWIDTH 1 0
BBX 0 0 0 0
BITMAP
ENDCHAR
STARTCHAR 0027
ENCODING 39
SWIDTH 166 0
DWIDTH 5 0
BBX 3 6 0 17
BITMAP
E0
E0
E0
E0
E0
E0
ENDCHAR
STARTCHAR 0028
ENCODING 40
SWIDTH 300 0
DWIDTH 9 0
BBX 7 29 0 -5
BITMAP
06
1E
3E
78
70
E0
E0
E0
E0
E0
E0
E0
E0
E0
E0
E0
E0
E0
E0
E0
E0
E0
E0
E0
70
78
3E
1E
06
ENDCHAR
STARTCHAR 0029
ENCODING 41
SWIDTH 300 0
DWIDTH 9 0
BBX 7 29 0 -5
BITMAP
C0
F0
F8
3C
1C
0E
0E
0E
0E
0E
0E
0E
0E
0E
0E
0E
0E
0E
0E
0E
0E
0E
0E
0E
1C
3C
F8
F0
C0
ENDCHAR
STARTCHAR 002A
ENCODING 42
SWIDTH 33 0
DWIDTH 1 0
BBX 0 0 0 0
BITMAP
ENDCHAR
STARTCHAR 002B
ENCODING 43
SWIDTH 500 0
DWIDTH 15 0
BBX 13 13 0 3
BITMAP
0700
0700
0700
0700
0700
FFF8
FFF8
FFF8
0700
0700
0700
0700
0700
ENDCHAR
STARTCHAR 002C
ENCODING 44
SWIDTH 233 0
DWIDTH 7 0
BBX 5 6 0 -3
BITMAP
38
38
38
F0
F0
C0
ENDCHAR
STARTCHAR 002D
ENCODING 45
SWIDTH 433 0
DWIDTH 13 0
BBX 11 3 0 8
BITMAP
FFE0
FFE0
FFE0
ENDCHAR
STARTCHAR 002E
ENCODING 46
SWIDTH 166 0
DWIDTH 5 0
BBX 3 3 0 0
BITMAP
E0
E0
E0
ENDCHAR
STARTCHAR 002F
ENCODING 47
SWIDTH 333 0
DWIDTH 10 0
BBX 8 27 0 -3
BITMAP
07
07
07
0E
0E
0E
0E
0E
1C
1C
1C
1C
1C
38
38
38
38
38
38
70
70
70
70
70
E0
E0
E0
ENDCHAR
STARTCHAR 0030
ENCODING 48
SWIDTH 633 0
DWIDTH 19 0
BBX 17 24 0 0
BITMAP
0FF800
3FFE00
7FFF00
700700
E00380
E00380
E00380
E00380
E00380
E00380
E00380
E00380
E00380
E00380
E00380
E00380
E00380
E00380
E00380
E00380
700700
7FFF00
3FFE00
0FF800
ENDCHAR
STARTCHAR 0031
ENCODING 49
SWIDTH 333 0
DWIDTH 10 0
BBX 8 24 0 0
BITMAP
0F
1F
3F
7F
F7
E7
C7
07
07
07
07
07
07
07
07
07
07
07
07
07
07
07
07
07
ENDCHAR
STARTCHAR 0032
ENCODING 50
SWIDTH 633 0
DWIDTH 19 0
BBX 17 24 0 0
BITMAP
0FF800
3FFE00
7FFF00
700700
E00380
000380
000380
000380
000380
000F00
03FF00
0FFE00
1FF800
3E0000
380000
700000
700000
F00000
E00000
E00000
E00000
FFFF80
FFFF80
FFFF80
ENDCHAR
STARTCHAR 0033
ENCODING 51
SWIDTH 633 0
DWIDTH 19 0
BBX 17 24 0 0
BITMAP
0FF800
3FFE00
7FFF00
700700
E00380
000380
000380
000380
000380
000700
07FE00
07FE00
07FF00
000700
000380
000380
000380
000380
E00380
E00380
700700
7FFF00
3FFE00
0FF800
ENDCHAR
STARTCHAR 0034
ENCODING 52
SWIDTH 633 0
DWIDTH 19 0
BBX 17 24 0 0
BITMAP
070000
070000
070000
0E1C00
0E1C00
0E1C00
1C1C00
1C1C00
1C1C00
381C00
381C00
381C00
701C00
701C00
701C00
FFFF80
FFFF80
FFFF80
001C00
001C00
001C00
001C00
001C00
001C00
ENDCHAR
STARTCHAR 0035
ENCODING 53
SWIDTH 633 0
DWIDTH 19 0
BBX 17 24 0 0
BITMAP
3FFF00
3FFF00
3FFF00
380000
380000
700000
700000
700000
700000
E7F800
FFFE00
FFFF00
F00700
E00380
000380
000380
000380
000380
E00380
E00380
700700
7FFF00
3FFE00
0FF800
ENDCHAR
STARTCHAR 0036
ENCODING 54
SWIDTH 633 0
DWIDTH 19 0
BBX 17 24 0 0
BITMAP
07F800
1FFE00
3FFF00
780700
700000
700000
E00000
E00000
E00000
EFF800
FFFE00
FFFF00
F00700
E00380
E00380
E00380
E00380
E00380
E00380
E00380
700700
7FFF00
3FFE00
0FF800
ENDCHAR
STARTCHAR 0037
ENCODING 55
SWIDTH 633 0
DWIDTH 19 0
BBX 17 24 0 0
BITMAP
FFFF80
FFFF80
FFFF80
000380
000780
000F00
000E00
001E00
003C00
003800
007800
00F000
00E000
01E000
01C000
03C000
038000
078000
070000
0F0000
0E0000
0E0000
0E0000
0E0000
ENDCHAR
STARTCHAR 0038
ENCODING 56
SWIDTH 633 0
DWIDTH 19 0
BBX 17 24 0 0
BITMAP
0FF800
3FFE00
7FFF00
700700
E00380
E00380
E00380
E00380
E00380
700700
7FFF00
3FFE00
7FFF00
700700
E00380
E00380
E00380
E00380
E00380
E00380
700700
7FFF00
3FFE00
0FF800
ENDCHAR
STARTCHAR 0039
ENCODING 57
SWIDTH 633 0
DWIDTH 19 0
BBX 17 24 0 0
BITMAP
0FF800
3FFE00
7FFF00
700700
E00380
E00380
E00380
E00380
E00380
E00380
E00380
700780
7FFF80
3FFF80
0FFB80
000380
000380
000380
000700
000700
700F00
7FFE00
3FFC00
0FF000
ENDCHAR
STARTCHAR 003A
ENCODING 58
SWIDTH 166 0
DWIDTH 5 0
BBX 3 17 0 0
BITMAP
E0
E0
E0
00
00
00
00
00
00
00
00
00
00
00
E0
E0
E0
ENDCHAR
STARTCHAR 003B
ENCODING 59
SWIDTH 233 0
DWIDTH 7 0
BBX 5 20 0 -3
BITMAP
38
38
38
00
00
00
00
00
00
00
00
00
00
00
38
38
38
F0
F0
C0
ENDCHAR
STARTCHAR 003C
ENCODING 60
SWIDTH 33 0
DWIDTH 1 0
BBX 0 0 0 0
BITMAP
ENDCHAR
STARTCHAR 003D
ENCODING 61
SWIDTH 500 0
DWIDTH 15 0
BBX 13 9 0 5
BITMAP
FFF8
FFF8
FFF8
0000
0000
0000
FFF8
FFF8
FFF8
ENDCHAR
STARTCHAR 003E
ENCODING 62
SWIDTH 33 0
DWIDTH 1 0
BBX 0 0 0 0
BITMAP
ENDCHAR
STARTCHAR 003F
ENCODING 63
SWIDTH 566 0
DWIDTH 17 0
BBX 15 24 0 0
BITMAP
0FE0
3FF8
7FFC
701C
E00E
000E
000E
000E
001E
007C
00F8
01F0
01C0
03C0
0380
0380
0380
0380
0000
0000
0000
0380
0380
0380
ENDCHAR
STARTCHAR 0040
ENCODING 64
SWIDTH 33 0
DWIDTH 1 0
BBX 0 0 0 0
BITMAP
ENDCHAR
STARTCHAR 0041
ENCODING 65
SWIDTH 733 0
DWIDTH 22 0
BBX 20 24 0 0
BITMAP
00F000
00F000
01F800
01F800
01F800
039C00
039C00
039C00
070E00
070E00
070E00
0E0700
0E0700
0E0700
1C0380
1FFF80
1FFF80
3FFFC0
3801C0
7801E0
7000E0
7000E0
F000F0
E00070
ENDCHAR
STARTCHAR 0042
ENCODING 66
SWIDTH 633 0
DWIDTH 19 0
BBX 17 24 0 0
BITMAP
FFF800
FFFE00
FFFF00
E00700
E00380
E00380
E00380
E00380
E00380
E00700
FFFF00
FFFE00
FFFF00
E00700
E00380
E00380
E00380
E00380
E00380
E00380
E00700
FFFF00
FFFE00
FFF800
ENDCHAR
STARTCHAR 0043
ENCODING 67
SWIDTH 766 0
DWIDTH 23 0
BBX 21 24 0 0
BITMAP
07FF00
1FFFC0
3FFFE0
7C01F0
700070
F00070
E00000
E00000
E00000
E00000
E00000
E00000
E00000
E00000
E00000
E00000
E00038
E00038
F00078
700070
7C01F0
3FFFE0
1FFFC0
07FF00
ENDCHAR
STARTCHAR 0044
ENCODING 68
SWIDTH 700 0
DWIDTH 21 0
BBX 19 24 0 0
BITMAP
FFFC00
FFFF00
FFFF80
E007C0
E001C0
E001E0
E000E0
E000E0
E000E0
E000E0
E000E0
E000E0
E000E0
E000E0
E000E0
E000E0
E000E0
E000E0
E001E0
E001C0
E007C0
FFFF80
FFFF00
FFFC00
ENDCHAR
STARTCHAR 0045
ENCODING 69
SWIDTH 633 0
DWIDTH 19 0
BBX 17 24 0 0
BITMAP
FFFF80
FFFF80
FFFF80
E00000
E00000
E00000
E00000
E00000
E00000
E00000
FFFF00
FFFF00
FFFF00
E00000
E00000
E00000
E00000
E00000
E00000
E00000
E00000
FFFF80
FFFF80
FFFF80
ENDCHAR
STARTCHAR 0046
ENCODING 70
SWIDTH 633 0
DWIDTH 19 0
BBX 17 24 0 0
BITMAP
FFFF80
FFFF80
FFFF80
E00000
E00000
E00000
E00000
E00000
E00000
E00000
FFFF00
FFFF00
FFFF00
E00000
E00000
E00000
E00000
E00000
E00000
E00000
E00000
E00000
E00000
E00000
ENDCHAR
STARTCHAR 0047
ENCODING 71
SWIDTH 766 0
DWIDTH 23 0
BBX 21 24 0 0
BITMAP
07FF00
1FFFC0
3FFFE0
7C01F0
700070
F00070
E00000
E00000
E00000
E00000
E00000
E01FF8
E01FF8
E01FF8
E00038
E00038
E00038
E00038
F00038
700078
7C00F0
3FFFF0
1FFFE0
07FF80
ENDCHAR
STARTCHAR 0048
ENCODING 72
SWIDTH 700 0
DWIDTH 21 0
BBX 19 24 0 0
BITMAP
E000E0
E000E0
E000E0
E000E0
E000E0
E000E0
E000E0
E000E0
E000E0
E000E0
FFFFE0
FFFFE0
FFFFE0
E000E0
E000E0
E000E0
E000E0
E000E0
E000E0
E000E0
E000E0
E000E0
E000E0
E000E0
ENDCHAR
STARTCHAR 0049
ENCODING 73
SWIDTH 166 0
DWIDTH 5 0
BBX 3 24 0 0
BITMAP
E0
E0
E0
E0
E0
E0
E0
E0
E0
E0
E0
E0
E0
E0
E0
E0
E0
E0
E0
E0
E0
E0
E0
E0
ENDCHAR
STARTCHAR 004A
ENCODING 74
SWIDTH 566 0
DWIDTH 17 0
BBX 15 24 0 0
BITMAP
000E
000E
000E
000E
000E
000E
000E
000E
000E
000E
000E
000E
000E
000E
E00E
E00E
E00E
E00E
E00E
E00E
701C
7FFC
3FF8
0FE0
ENDCHAR
STARTCHAR 004B
ENCODING 75
SWIDTH 666 0
DWIDTH 20 0
BBX 18 24 0 0
BITMAP
E00780
E00F00
E01E00
E03C00
E07800
E0F000
E1E000
E3C000
E78000
EF0000
FE0000
FC0000
FE0000
EF0000
E78000
E3C000
E1E000
E0F000
E07800
E03C00
E01E00
E00F00
E00780
E003C0
ENDCHAR
STARTCHAR 004C
ENCODING 76
SWIDTH 633 0
DWIDTH 19 0
BBX 17 24 0 0
BITMAP
E00000
E00000
E00000
E00000
E00000
E00000
E00000
E00000
E00000
E00000
E00000
E00000
E00000
E00000
E00000
E00000
E00000
E00000
E00000
E00000
E00000
FFFF80
FFFF80
FFFF80
ENDCHAR
STARTCHAR 004D
ENCODING 77
SWIDTH 900 0
DWIDTH 27 0
BBX 25 24 0 0
BITMAP
70000700
78000F00
78000F00
7C001F00
7C001F00
7E003F00
7E003F00
7E003F00
77007700
77007700
7780F700
7380E700
F380E780
E3C1E380
E1C1C380
E1E3C380
E0E38380
E0F78380
E0770380
E07F0380
E03E0380
E03E0380
E01C0380
E01C0380
ENDCHAR
STARTCHAR 004E
ENCODING 78
SWIDTH 700 0
DWIDTH 21 0
BBX 19 24 0 0
BITMAP
F000E0
F800E0
F800E0
FC00E0
FE00E0
EE00E0
EF00E0
E780E0
E780E0
E3C0E0
E1C0E0
E1E0E0
E0F0E0
E070E0
E078E0
E03CE0
E01CE0
E01EE0
E00EE0
E00FE0
E007E0
E003E0
E003E0
E001E0
ENDCHAR
STARTCHAR 004F
ENCODING 79
SWIDTH 766 0
DWIDTH 23 0
BBX 21 24 0 0
BITMAP
07FF00
1FFFC0
3FFFE0
7C01F0
700070
F00078
E00038
E00038
E00038
E00038
E00038
E00038
E00038
E00038
E00038
E00038
E00038
E00038
F00078
700070
7C01F0
3FFFE0
1FFFC0
07FF00
ENDCHAR
STARTCHAR 0050
ENCODING 80
SWIDTH 633 0
DWIDTH 19 0
BBX 17 24 0 0
BITMAP
FFF800
FFFE00
FFFF00
E00700
E00380
E00380
E00380
E00380
E00380
E00380
E00380
E00380
E00700
FFFF00
FFFE00
FFF800
E00000
E00000
E00000
E00000
E00000
E00000
E00000
E00000
ENDCHAR
STARTCHAR 0051
ENCODING 81
SWIDTH 766 0
DWIDTH 23 0
BBX 21 28 0 -4
BITMAP
07FF00
1FFFC0
3FFFE0
7C01F0
700070
F00078
E00038
E00038
E00038
E00038
E00038
E00038
E00038
E00038
E00038
E00038
E00038
E00038
F00078
700070
7C01F0
3FFFE0
1FFFC0
07FF00
000780
0003C0
0001E0
0000F0
ENDCHAR
STARTCHAR 0052
ENCODING 82
SWIDTH 633 0
DWIDTH 19 0
BBX 17 24 0 0
BITMAP
FFF800
FFFE00
FFFF00
E00700
E00380
E00380
E00380
E00380
E00380
E00380
E00380
E00380
E00700
FFFF00
FFFE00
FFF800
E01C00
E01C00
E00E00
E00E00
E00700
E00700
E00380
E00380
ENDCHAR
STARTCHAR 0053
ENCODING 83
SWIDTH 633 0
DWIDTH 19 0
BBX 17 24 0 0
BITMAP
0FF800
3FFE00
7FFF00
700700
E00000
E00000
E00000
E00000
E00000
700000
7FF800
3FFE00
1FFF00
000700
000380
000380
000380
000380
E00380
E00380
700700
7FFF00
3FFE00
0FF800
ENDCHAR
STARTCHAR 0054
ENCODING 84
SWIDTH 633 0
DWIDTH 19 0
BBX 17 24 0 0
BITMAP
FFFF80
FFFF80
FFFF80
01C000
01C000
01C000
01C000
01C000
01C000
01C000
01C000
01C000
01C000
01C000
01C000
01C000
01C000
01C000
01C000
01C000
01C000
01C000
01C000
01C000
ENDCHAR
STARTCHAR 0055
ENCODING 85
SWIDTH 700 0
DWIDTH 21 0
BBX 19 24 0 0
BITMAP
E000E0
E000E0
E000E0
E000E0
E000E0
E000E0
E000E0
E000E0
E000E0
E000E0
E000E0
E000E0
E000E0
E000E0
E000E0
E000E0
E000E0
E000E0
F001E0
7001C0
7C07C0
3FFF80
1FFF00
07FC00
ENDCHAR
STARTCHAR 0056
ENCODING 86
SWIDTH 766 0
DWIDTH 23 0
BBX 21 24 0 0
BITMAP
E00038
E00038
700070
700070
3800E0
3800E0
3800E0
1C01C0
1C01C0
1C01C0
0E0380
0E0380
0F0780
070700
078F00
038E00
038E00
01DC00
01DC00
01FC00
00F800
00F800
007000
007000
ENDCHAR
STARTCHAR 0057
ENCODING 87
SWIDTH 1033 0
DWIDTH 31 0
BBX 29 24 0 0
BITMAP
E0070038
E0070038
E00F8038
F00F8078
700F8070
701DC070
701DC070
381DC0E0
3838E0E0
3838E0E0
3838E0E0
1C38E1C0
1C7071C0
1C7071C0
1C7071C0
0E603380
0EE03B80
0EE03B80
0FE03F80
07C01F00
07C01F00
07C01F00
03800E00
03800E00
ENDCHAR
STARTCHAR 0058
ENCODING 88
SWIDTH 633 0
DWIDTH 19 0
BBX 17 24 0 0
BITMAP
E00380
700700
700700
380E00
380E00
1C1C00
1C1C00
0E3800
0E3800
077000
077000
03E000
03E000
07F000
077000
0E3800
0E3800
1C1C00
1C1C00
380E00
380E00
700700
700700
E00380
ENDCHAR
STARTCHAR 0059
ENCODING 89
SWIDTH 633 0
DWIDTH 19 0
BBX 17 24 0 0
BITMAP
E00380
700700
700700
380E00
380E00
1C1C00
1C1C00
0E3800
0E3800
077000
077000
03E000
03E000
01C000
01C000
01C000
01C000
01C000
01C000
01C000
01C000
01C000
01C000
01C000
ENDCHAR
STARTCHAR 005A
ENCODING 90
SWIDTH 633 0
DWIDTH 19 0
BBX 17 24 0 0
BITMAP
FFFF00
FFFF00
FFFF00
000F00
000F00
001E00
003C00
007800
007800
00F000
01E000
03C000
03C000
078000
0F0000
1E0000
1E0000
3C0000
780000
F00000
F00000
FFFF80
FFFF80
FFFF80
ENDCHAR
STARTCHAR 005B
ENCODING 91
SWIDTH 266 0
DWIDTH 8 0
BBX 6 28 0 -4
BITMAP
7C
FC
FC
E0
E0
E0
E0
E0
E0
E0
E0
E0
E0
E0
E0
E0
E0
E0
E0
E0
E0
E0
E0
E0
E0
FC
FC
7C
ENDCHAR
STARTCHAR 005C
ENCODING 92
SWIDTH 333 0
DWIDTH 10 0
BBX 8 27 0 -3
BITMAP
E0
E0
E0
70
70
70
70
70
38
38
38
38
38
1C
1C
1C
1C
1C
1C
0E
0E
0E
0E
0E
07
07
07
ENDCHAR
STARTCHAR 005D
ENCODING 93
SWIDTH 266 0
DWIDTH 8 0
BBX 6 28 0 -4
BITMAP
F8
FC
FC
1C
1C
1C
1C
1C
1C
1C
1C
1C
1C
1C
1C
1C
1C
1C
1C
1C
1C
1C
1C
1C
1C
FC
FC
F8
ENDCHAR
STARTCHAR 005E
ENCODING 94
SWIDTH 433 0
DWIDTH 13 0
BBX 11 9 0 15
BITMAP
0E00
0E00
1F00
1F00
3B80
3B80
71C0
71C0
E0E0
ENDCHAR
STARTCHAR 005F
ENCODING 95
SWIDTH 433 0
DWIDTH 13 0
BBX 11 3 0 0
BITMAP
FFE0
FFE0
FFE0
ENDCHAR
STARTCHAR 0060
ENCODING 96
SWIDTH 300 0
DWIDTH 9 0
BBX 7 4 0 20
BITMAP
F0
78
3C
1E
ENDCHAR
STARTCHAR 0061
ENCODING 97
SWIDTH 566 0
DWIDTH 17 0
BBX 15 17 0 0
BITMAP
1FE0
3FF8
3FFC
001C
000E
000E
0FFE
3FFE
7FFE
700E
E00E
E00E
E00E
701E
7FFC
3FFC
0FF0
ENDCHAR
STARTCHAR 0062
ENCODING 98
SWIDTH 566 0
DWIDTH 17 0
BBX 15 24 0 0
BITMAP
E000
E000
E000
E000
E000
E000
E000
EFE0
FFF8
FFFC
F01C
E00E
E00E
E00E
E00E
E00E
E00E
E00E
E00E
E00E
F01C
7FFC
7FF8
1FE0
ENDCHAR
STARTCHAR 0063
ENCODING 99
SWIDTH 566 0
DWIDTH 17 0
BBX 15 17 0 0
BITMAP
0FE0
3FF8
7FFC
701C
E000
E000
E000
E000
E000
E000
E000
E00E
E00E
701C
7FFC
3FF8
0FE0
ENDCHAR
STARTCHAR 0064
ENCODING 100
SWIDTH 566 0
DWIDTH 17 0
BBX 15 24 0 0
BITMAP
000E
000E
000E
000E
000E
000E
000E
0FEE
3FFE
7FFE
701E
E00E
E00E
E00E
E00E
E00E
E00E
E00E
E00E
E00E
701E
7FFC
3FFC
0FF0
ENDCHAR
STARTCHAR 0065
ENCODING 101
SWIDTH 566 0
DWIDTH 17 0
BBX 15 17 0 0
BITMAP
0FE0
3FF8
7FFC
701C
E00E
E00E
E00E
FFFE
FFFE
FFFE
E000
E000
E000
701C
7FFC
3FF8
0FE0
ENDCHAR
STARTCHAR 0066
ENCODING 102
SWIDTH 433 0
DWIDTH 13 0
BBX 11 24 0 0
BITMAP
03E0
0FE0
0FE0
1E00
1C00
1C00
1C00
FFE0
FFE0
FFE0
1C00
1C00
1C00
1C00
1C00
1C00
1C00
1C00
1C00
1C00
1C00
1C00
1C00
1C00
ENDCHAR
STARTCHAR 0067
ENCODING 103
SWIDTH 566 0
DWIDTH 17 0
BBX 15 23 0 -6
BITMAP
0FF0
3FFC
7FFC
701E
E00E
E00E
E00E
E00E
E00E
E00E
E00E
E00E
E00E
701E
7FFE
3FFE
0FEE
000E
000E
001C
1FFC
1FF8
1FE0
ENDCHAR
STARTCHAR 0068
ENCODING 104
SWIDTH 533 0
DWIDTH 16 0
BBX 14 24 0 0
BITMAP
E000
E000
E000
E000
E000
E000
E000
EFC0
FFF0
FFF8
F038
E01C
E01C
E01C
E01C
E01C
E01C
E01C
E01C
E01C
E01C
E01C
E01C
E01C
ENDCHAR
STARTCHAR 0069
ENCODING 105
SWIDTH 166 0
DWIDTH 5 0
BBX 3 23 0 0
BITMAP
E0
E0
E0
00
00
00
E0
E0
E0
E0
E0
E0
E0
E0
E0
E0
E0
E0
E0
E0
E0
E0
E0
ENDCHAR
STARTCHAR 006A
ENCODING 106
SWIDTH 233 0
DWIDTH 7 0
BBX 7 29 -2 -6
BITMAP
0E
0E
0E
00
00
00
0E
0E
0E
0E
0E
0E
0E
0E
0E
0E
0E
0E
0E
0E
0E
0E
0E
0E
0E
1E
FC
FC
F0
ENDCHAR
STARTCHAR 006B
ENCODING 107
SWIDTH 566 0
DWIDTH 17 0
BBX 15 24 0 0
BITMAP
E000
E000
E000
E000
E000
E000
E000
E03C
E078
E0F0
E1E0
E3C0
E780
EF00
FE00
FE00
EF00
E780
E3C0
E1E0
E0F0
E078
E03C
E01E
ENDCHAR
STARTCHAR 006C
ENCODING 108
SWIDTH 166 0
DWIDTH 5 0
BBX 3 24 0 0
BITMAP
E0
E0
E0
E0
E0
E0
E0
E0
E0
E0
E0
E0
E0
E0
E0
E0
E0
E0
E0
E0
E0
E0
E0
E0
ENDCHAR
STARTCHAR 006D
ENCODING 109
SWIDTH 833 0
DWIDTH 25 0
BBX 23 17 0 0
BITMAP
EF83E0
FFEFF8
FFFFFC
F07C1C
E0380E
E0380E
E0380E
E0380E
E0380E
E0380E
E0380E
E0380E
E0380E
E0380E
E0380E
E0380E
E0380E
ENDCHAR
STARTCHAR 006E
ENCODING 110
SWIDTH 533 0
DWIDTH 16 0
BBX 14 17 0 0
BITMAP
EFC0
FFF0
FFF8
F038
E01C
E01C
E01C
E01C
E01C
E01C
E01C
E01C
E01C
E01C
E01C
E01C
E01C
ENDCHAR
STARTCHAR 006F
ENCODING 111
SWIDTH 566 0
DWIDTH 17 0
BBX 15 17 0 0
BITMAP
0FE0
3FF8
7FFC
701C
E00E
E00E
E00E
E00E
E00E
E00E
E00E
E00E
E00E
701C
7FFC
3FF8
0FE0
ENDCHAR
STARTCHAR 0070
ENCODING 112
SWIDTH 566 0
DWIDTH 17 0
BBX 15 23 0 -6
BITMAP
1FE0
7FF8
7FFC
F01C
E00E
E00E
E00E
E00E
E00E
E00E
E00E
E00E
E00E
F01C
FFFC
FFF8
EFE0
E000
E000
E000
E000
E000
E000
ENDCHAR
STARTCHAR 0071
ENCODING 113
SWIDTH 566 0
DWIDTH 17 0
BBX 15 23 0 -6
BITMAP
0FF0
3FFC
7FFC
701E
E00E
E00E
E00E
E00E
E00E
E00E
E00E
E00E
E00E
701E
7FFE
3FFE
0FEE
000E
000E
000E
000E
000E
000E
ENDCHAR
STARTCHAR 0072
ENCODING 114
SWIDTH 400 0
DWIDTH 12 0
BBX 10 17 0 0
BITMAP
E3C0
EFC0
EFC0
FC00
F800
F000
E000
E000
E000
E000
E000
E000
E000
E000
E000
E000
E000
ENDCHAR
STARTCHAR 0073
ENCODING 115
SWIDTH 566 0
DWIDTH 17 0
BBX 15 17 0 0
BITMAP
0FE0
3FF8
3FFC
781C
7000
7000
7800
3FF0
3FFC
0FFC
001E
E00E
E00E
701E
7FFC
3FF8
0FF0
ENDCHAR
STARTCHAR 0074
ENCODING 116
SWIDTH 433 0
DWIDTH 13 0
BBX 11 21 0 0
BITMAP
1C00
1C00
1C00
1C00
FFE0
FFE0
FFE0
1C00
1C00
1C00
1C00
1C00
1C00
1C00
1C00
1C00
1C00
1E00
0FE0
0FE0
03E0
ENDCHAR
STARTCHAR 0075
ENCODING 117
SWIDTH 566 0
DWIDTH 17 0
BBX 15 17 0 0
BITMAP
E00E
E00E
E00E
E00E
E00E
E00E
E00E
E00E
E00E
E00E
E00E
E00E
E00E
701C
7FFC
3FF8
0FE0
ENDCHAR
STARTCHAR 0076
ENCODING 118
SWIDTH 566 0
DWIDTH 17 0
BBX 15 17 0 0
BITMAP
E00E
E00E
E00E
F01E
701C
701C
783C
3838
3C78
1C70
1EF0
0EE0
0FE0
07C0
07C0
0380
0380
ENDCHAR
STARTCHAR 0077
ENCODING 119
SWIDTH 966 0
DWIDTH 29 0
BBX 27 17 0 0
BITMAP
E00E00E0
E00E00E0
701F01C0
701F01C0
383B8380
383B8380
383B8380
1C71C700
1C71C700
1C71C700
0EE0EE00
0EE0EE00
0FE0FE00
07C07C00
07C07C00
03803800
03803800
ENDCHAR
STARTCHAR 0078
ENCODING 120
SWIDTH 566 0
DWIDTH 17 0
BBX 15 17 0 0
BITMAP
E00E
F01E
701C
3838
3838
1C70
1EF0
0FE0
07C0
0FE0
1EF0
1C70
3838
3838
701C
F01E
E00E
ENDCHAR
STARTCHAR 0079
ENCODING 121
SWIDTH 566 0
DWIDTH 17 0
BBX 15 23 0 -6
BITMAP
E00E
E00E
E00E
F01E
701C
783C
3838
3838
1C70
1C70
1C70
0EE0
0EE0
0FE0
07C0
07C0
0380
0380
0780
0F00
7F00
7E00
7800
ENDCHAR
STARTCHAR 007A
ENCODING 122
SWIDTH 566 0
DWIDTH 17 0
BBX 15 17 0 0
BITMAP
FFFE
FFFE
FFFE
003C
0078
00F0
01E0
03C0
0780
0F00
1E00
3C00
7800
F000
FFFE
FFFE
FFFE
ENDCHAR
STARTCHAR 007B
ENCODING 123
SWIDTH 333 0
DWIDTH 10 0
BBX 8 28 0 -4
BITMAP
1F
3F
3F
38
38
38
38
38
38
38
38
70
F0
E0
F0
70
38
38
38
38
38
38
38
38
38
3F
3F
1F
ENDCHAR
STARTCHAR 007C
ENCODING 124
SWIDTH 166 0
DWIDTH 5 0
BBX 3 27 0 -3
BITMAP
E0
E0
E0
E0
E0
E0
E0
E0
E0
E0
E0
E0
E0
E0
E0
E0
E0
E0
E0
E0
E0
E0
E0
E0
E0
E0
E0
ENDCHAR
STARTCHAR 007D
ENCODING 125
SWIDTH 333 0
DWIDTH 10 0
BBX 8 28 0 -4
BITMAP
F8
FC
FC
1C
1C
1C
1C
1C
1C
1C
1C
0E
0F
07
0F
0E
1C
1C
1C
1C
1C
1C
1C
1C
1C
FC
FC
F8
ENDCHAR
STARTCHAR 007E
ENCODING 126
SWIDTH 500 0
DWIDTH 15 0
BBX 13 7 0 6
BITMAP
3800
7C00
FE18
E738
C3F8
01F0
00E0
ENDCHAR
STARTCHAR 00A5
ENCODING 165
SWIDTH 633 0
DWIDTH 19 0
BBX 17 24 0 0
BITMAP
E00380
700700
700700
380E00
380E00
1C1C00
1C1C00
0E3800
0E3800
077000
077000
03E000
03E000
01C000
01C000
01C000
7FFF00
7FFF00
7FFF00
01C000
01C000
01C000
01C000
01C000
ENDCHAR
STARTCHAR 00A9
ENCODING 169
SWIDTH 33 0
DWIDTH 1 0
BBX 0 0 0 0
BITMAP
ENDCHAR
STARTCHAR 00AE
ENCODING 174
SWIDTH 33 0
DWIDTH 1 0
BBX 0 0 0 0
BITMAP
ENDCHAR
STARTCHAR 2026
ENCODING 8230
SWIDTH 500 0
DWIDTH 15 0
BBX 13 3 0 0
BITMAP
E738
E738
E738
ENDCHAR
STARTCHAR 203C
ENCODING 8252
SWIDTH 333 0
DWIDTH 10 0
BBX 8 24 0 0
BITMAP
E7
E7
E7
E7
E7
E7
E7
E7
E7
E7
E7
E7
E7
E7
E7
E7
E7
E7
00
00
00
E7
E7
E7
ENDCHAR
STARTCHAR 2122
ENCODING 8482
SWIDTH 33 0
DWIDTH 1 0
BBX 0 0 0 0
BITMAP
ENDCHAR
STARTCHAR 3000
ENCODING 12288
SWIDTH 833 0
DWIDTH 25 0
BBX 0 0 0 0
BITMAP
ENDCHAR
STARTCHAR 3001
ENCODING 12289
SWIDTH 833 0
DWIDTH 25 0
BBX 7 7 0 -2
BITMAP
C0
F0
F8
3C
1C
0E
0E
ENDCHAR
STARTCHAR 3002
ENCODING 12290
SWIDTH 833 0
DWIDTH 25 0
BBX 9 9 0 -2
BITMAP
1C00
7F00
7F00
E380
E380
E380
7F00
7F00
1C00
ENDCHAR
STARTCHAR 3003
ENCODING 12291
SWIDTH 33 0
DWIDTH 1 0
BBX 0 0 0 0
BITMAP
ENDCHAR
STARTCHAR 3004
ENCODING 12292
SWIDTH 33 0
DWIDTH 1 0
BBX 0 0 0 0
BITMAP
ENDCHAR
STARTCHAR 3005
ENCODING 12293
SWIDTH 33 0
DWIDTH 1 0
BBX 0 0 0 0
BITMAP
ENDCHAR
STARTCHAR 3006
ENCODING 12294
SWIDTH 33 0
DWIDTH 1 0
BBX 0 0 0 0
BITMAP
ENDCHAR
STARTCHAR 3007
ENCODING 12295
SWIDTH 33 0
DWIDTH 1 0
BBX 0 0 0 0
BITMAP
ENDCHAR
STARTCHAR 3008
ENCODING 12296
SWIDTH 33 0
DWIDTH 1 0
BBX 0 0 0 0
BITMAP
ENDCHAR
STARTCHAR 3009
ENCODING 12297
SWIDTH 33 0
DWIDTH 1 0
BBX 0 0 0 0
BITMAP
ENDCHAR
STARTCHAR 300A
ENCODING 12298
SWIDTH 33 0
DWIDTH 1 0
BBX 0 0 0 0
BITMAP
ENDCHAR
STARTCHAR 300B
ENCODING 12299
SWIDTH 33 0
DWIDTH 1 0
BBX 0 0 0 0
BITMAP
ENDCHAR
STARTCHAR 300C
ENCODING 12300
SWIDTH 33 0
DWIDTH 1 0
BBX 0 0 0 0
BITMAP
ENDCHAR
STARTCHAR 300D
ENCODING 12301
SWIDTH 33 0
DWIDTH 1 0
BBX 0 0 0 0
BITMAP
ENDCHAR
STARTCHAR 300E
ENCODING 12302
SWIDTH 33 0
DWIDTH 1 0
BBX 0 0 0 0
BITMAP
ENDCHAR
STARTCHAR 300F
ENCODING 12303
SWIDTH 33 0
DWIDTH 1 0
BBX 0 0 0 0
BITMAP
ENDCHAR
STARTCHAR 3010
ENCODING 12304
SWIDTH 33 0
DWIDTH 1 0
BBX 0 0 0 0
BITMAP
ENDCHAR
STARTCHAR 3011
ENCODING 12305
SWIDTH 33 0
DWIDTH 1 0
BBX 0 0 0 0
BITMAP
ENDCHAR
STARTCHAR 3012
ENCODING 12306
SWIDTH 33 0
DWIDTH 1 0
BBX 0 0 0 0
BITMAP
ENDCHAR
STARTCHAR 3013
ENCODING 12307
SWIDTH 33 0
DWIDTH 1 0
BBX 0 0 0 0
BITMAP
ENDCHAR
STARTCHAR 3014
ENCODING 12308
SWIDTH 33 0
DWIDTH 1 0
BBX 0 0 0 0
BITMAP
ENDCHAR
STARTCHAR 3015
ENCODING 12309
SWIDTH 33 0
DWIDTH 1 0
BBX 0 0 0 0
BITMAP
ENDCHAR
STARTCHAR 3016
ENCODING 12310
SWIDTH 33 0
DWIDTH 1 0
BBX 0 0 0 0
BITMAP
ENDCHAR
STARTCHAR 3017
ENCODING 12311
SWIDTH 33 0
DWIDTH 1 0
BBX 0 0 0 0
BITMAP
ENDCHAR
STARTCHAR 3018
ENCODING 12312
SWIDTH 33 0
DWIDTH 1 0
BBX 0 0 0 0
BITMAP
ENDCHAR
STARTCHAR 3019
ENCODING 12313
SWIDTH 33 0
DWIDTH 1 0
BBX 0 0 0 0
BITMAP
ENDCHAR
STARTCHAR 301A
ENCODING 12314
SWIDTH 33 0
DWIDTH 1 0
BBX 0 0 0 0
BITMAP
ENDCHAR
STARTCHAR 301B
ENCODING 12315
SWIDTH 33 0
DWIDTH 1 0
BBX 0 0 0 0
BITMAP
ENDCHAR
STARTCHAR 301C
ENCODING 12316
SWIDTH 833 0
DWIDTH 25 0
BBX 20 9 2 8
BITMAP
0F0000
000000
000000
FFFFF0
FFFFF0
FFFFF0
000F00
000780
000F00
ENDCHAR
STARTCHAR 301D
ENCODING 12317
SWIDTH 33 0
DWIDTH 1 0
BBX 0 0 0 0
BITMAP
ENDCHAR
STARTCHAR 301E
ENCODING 12318
SWIDTH 33 0
DWIDTH 1 0
BBX 0 0 0 0
BITMAP
ENDCHAR
STARTCHAR 301F
ENCODING 12319
SWIDTH 33 0
DWIDTH 1 0
BBX 0 0 0 0
BITMAP
ENDCHAR
STARTCHAR 3020
ENCODING 12320
SWIDTH 33 0
DWIDTH 1 0
BBX 0 0 0 0
BITMAP
ENDCHAR
STARTCHAR 3021
ENCODING 12321
SWIDTH 33 0
DWIDTH 1 0
BBX 0 0 0 0
BITMAP
ENDCHAR
STARTCHAR 3022
ENCODING 12322
SWIDTH 33 0
DWIDTH 1 0
BBX 0 0 0 0
BITMAP
ENDCHAR
STARTCHAR 3023
ENCODING 12323
SWIDTH 33 0
DWIDTH 1 0
BBX 0 0 0 0
BITMAP
ENDCHAR
STARTCHAR 3024
ENCODING 12324
SWIDTH 33 0
DWIDTH 1 0
BBX 0 0 0 0
BITMAP
ENDCHAR
STARTCHAR 3025
ENCODING 12325
SWIDTH 33 0
DWIDTH 1 0
BBX 0 0 0 0
BITMAP
ENDCHAR
STARTCHAR 3026
ENCODING 12326
SWIDTH 33 0
DWIDTH 1 0
BBX 0 0 0 0
BITMAP
ENDCHAR
STARTCHAR 3027
ENCODING 12327
SWIDTH 33 0
DWIDTH 1 0
BBX 0 0 0 0
BITMAP
ENDCHAR
STARTCHAR 3028
ENCODING 12328
SWIDTH 33 0
DWIDTH 1 0
BBX 0 0 0 0
BITMAP
ENDCHAR
STARTCHAR 3029
ENCODING 12329
SWIDTH 33 0
DWIDTH 1 0
BBX 0 0 0 0
BITMAP
ENDCHAR
STARTCHAR 302A
ENCODING 12330
SWIDTH 33 0
DWIDTH 1 0
BBX 0 0 0 0
BITMAP
ENDCHAR
STARTCHAR 302B
ENCODING 12331
SWIDTH 33 0
DWIDTH 1 0
BBX 0 0 0 0
BITMAP
ENDCHAR
STARTCHAR 302C
ENCODING 12332
SWIDTH 33 0
DWIDTH 1 0
BBX 0 0 0 0
BITMAP
ENDCHAR
STARTCHAR 302D
ENCODING 12333
SWIDTH 33 0
DWIDTH 1 0
BBX 0 0 0 0
BITMAP
ENDCHAR
STARTCHAR 302E
ENCODING 12334
SWIDTH 33 0
DWIDTH 1 0
BBX 0 0 0 0
BITMAP
ENDCHAR
STARTCHAR 302F
ENCODING 12335
SWIDTH 33 0
DWIDTH 1 0
BBX 0 0 0 0
BITMAP
ENDCHAR
STARTCHAR 3030
ENCODING 12336
SWIDTH 33 0
DWIDTH 1 0
BBX 0 0 0 0
BITMAP
ENDCHAR
STARTCHAR 3031
ENCODING 12337
SWIDTH 33 0
DWIDTH 1 0
BBX 0 0 0 0
BITMAP
ENDCHAR
STARTCHAR 3032
ENCODING 12338
SWIDTH 33 0
DWIDTH 1 0
BBX 0 0 0 0
BITMAP
ENDCHAR
STARTCHAR 3033
ENCODING 12339
SWIDTH 33 0
DWIDTH 1 0
BBX 0 0 0 0
BITMAP
ENDCHAR
STARTCHAR 3034
ENCODING 12340
SWIDTH 33 0
DWIDTH 1 0
BBX 0 0 0 0
BITMAP
ENDCHAR
STARTCHAR 3035
ENCODING 12341
SWIDTH 33 0
DWIDTH 1 0
BBX 0 0 0 0
BITMAP
ENDCHAR
STARTCHAR 3036
ENCODING 12342
SWIDTH 33 0
DWIDTH 1 0
BBX 0 0 0 0
BITMAP
ENDCHAR
STARTCHAR 3037
ENCODING 12343
SWIDTH 33 0
DWIDTH 1 0
BBX 0 0 0 0
BITMAP
ENDCHAR
STARTCHAR 3038
ENCODING 12344
SWIDTH 33 0
DWIDTH 1 0
BBX 0 0 0 0
BITMAP
ENDCHAR
STARTCHAR 3039
ENCODING 12345
SWIDTH 33 0
DWIDTH 1 0
BBX 0 0 0 0
BITMAP
ENDCHAR
STARTCHAR 303A
ENCODING 12346
SWIDTH 33 0
DWIDTH 1 0
BBX 0 0 0 0
BITMAP
ENDCHAR
STARTCHAR 303B
ENCODING 12347
SWIDTH 33 0
DWIDTH 1 0
BBX 0 0 0 0
BITMAP
ENDCHAR
STARTCHAR 303C
ENCODING 12348
SWIDTH 33 0
DWIDTH 1 0
BBX 0 0 0 0
BITMAP
ENDCHAR
STARTCHAR 303D
ENCODING 12349
SWIDTH 33 0
DWIDTH 1 0
BBX 0 0 0 0
BITMAP
ENDCHAR
STARTCHAR 303E
ENCODING 12350
SWIDTH 33 0
DWIDTH 1 0
BBX 0 0 0 0
BITMAP
ENDCHAR
STARTCHAR 303F
ENCODING 12351
SWIDTH 33 0
DWIDTH 1 0
BBX 0 0 0 0
BITMAP
ENDCHAR
STARTCHAR 3041
ENCODING 12353
SWIDTH 833 0
DWIDTH 25 0
BBX 18 20 1 -1
BITMAP
038000
038000
038000
038000
7FFF80
7FFF80
7FFF80
038000
03B800
1FFE00
7FFF80
7FFF80
F3BBC0
E3B9C0
E3F1C0
E3F1C0
F3E3C0
7FCF80
7F8F80
1E0E00
ENDCHAR
STARTCHAR 3042
ENCODING 12354
SWIDTH 833 0
DWIDTH 25 0
BBX 23 26 0 -1
BITMAP
01C000
01C000
01C000
01C000
7FFFF8
7FFFF8
7FFFF8
01C000
01C380
01C380
07FFC0
1FFFF0
3FFFF8
79C3BC
71C39C
E1C38E
E1C38E
E1C38E
E1C70E
E1C70E
E1CE0E
E1DE0E
71FC1C
7FF8FC
3FF0F8
0FC0E0
ENDCHAR
STARTCHAR 3043
ENCODING 12355
SWIDTH 833 0
DWIDTH 25 0
BBX 18 17 1 0
BITMAP
E00000
E00000
E00700
E00780
E00380
E003C0
E001C0
E001C0
E001C0
E001C0
E001C0
E1C1C0
E1C1C0
E3C000
7F8000
7F0000
1C0000
ENDCHAR
STARTCHAR 3044
ENCODING 12356
SWIDTH 833 0
DWIDTH 25 0
BBX 23 23 0 0
BITMAP
E00000
E00000
E00000
E000E0
E000F0
E00078
E00038
E0003C
E0001C
E0001C
E0001E
E0000E
E0000E
E0000E
E0E00E
E0E00E
E0E00E
E0E00E
E0E00E
F1E000
7FC000
7FC000
1F0000
ENDCHAR
STARTCHAR 3045
ENCODING 12357
SWIDTH 833 0
DWIDTH 25 0
BBX 16 20 1 -1
BITMAP
1FC0
1FF8
1FF8
0038
0000
0000
0FE0
FFF8
FFFC
F01E
000E
0007
0007
0007
0007
000E
003E
1FFC
1FF0
1FC0
ENDCHAR
STARTCHAR 3046
ENCODING 12358
SWIDTH 833 0
DWIDTH 25 0
BBX 19 26 2 -1
BITMAP
1FE000
1FFC00
1FFF80
003F80
000780
000000
000000
07F800
FFFE00
FFFF80
F80F80
0003C0
0001E0
0000E0
0000E0
0000E0
0000E0
0000E0
0000E0
0001E0
0001C0
0003C0
000F80
1FFF80
1FFE00
1FF800
ENDCHAR
STARTCHAR 3047
ENCODING 12359
SWIDTH 833 0
DWIDTH 25 0
BBX 18 20 0 -1
BITMAP
1FC000
1FF800
1FF800
003800
000000
000000
FFFE00
FFFE00
FFFE00
003C00
007800
00F000
01E000
03E000
07F000
0F7000
1E7000
3C7FC0
783FC0
F01FC0
ENDCHAR
STARTCHAR 3048
ENCODING 12360
SWIDTH 833 0
DWIDTH 25 0
BBX 22 26 0 -1
BITMAP
0FF000
0FFE00
0FFFC0
001FC0
0003C0
000000
000000
000000
7FFFC0
7FFFC0
7FFFC0
000780
000F00
001E00
003C00
007800
00FC00
01FE00
03CE00
078E00
0F0E00
1E0E00
3C0F00
7807FC
F007FC
E001FC
ENDCHAR
STARTCHAR 3049
ENCODING 12361
SWIDTH 833 0
DWIDTH 25 0
BBX 18 20 1 -1
BITMAP
070000
070000
070000
070000
7FE700
7FE780
7FE7C0
0700C0
070000
070000
1FFE00
7FFF80
7FFF80
E703C0
E701C0
E701C0
E703C0
7F1F80
7F1F80
1F1E00
ENDCHAR
STARTCHAR 304A
ENCODING 12362
SWIDTH 833 0
DWIDTH 25 0
BBX 23 26 0 -1
BITMAP
01C000
01C000
01C0C0
01C0F0
FFFCF8
FFFC3C
FFFC1C
01C00E
01C00E
01C000
01C000
01FF80
07FFE0
1FFFF0
3FC0F8
79C038
71C03C
E1C01C
E1C01C
E1C01C
E1C01C
E1C03C
F38078
7F87F8
7F07F0
1E07C0
ENDCHAR
STARTCHAR 304B
ENCODING 12363
SWIDTH 833 0
DWIDTH 25 0
BBX 23 26 0 -1
BITMAP
070000
070000
070070
070078
07003C
FFF81C
FFFE1E
FFFF0E
07070E
07078E
07038E
0F038E
0E038E
0E038E
0E038E
0E038E
1E038E
1C0380
1C0380
1C0380
380780
380700
780F00
70FE00
F0FE00
E0F800
ENDCHAR
STARTCHAR 304C
ENCODING 12364
SWIDTH 833 0
DWIDTH 25 0
BBX 23 26 0 -1
BITMAP
07001C
0701DC
0701DC
0701C0
070000
FFF81C
FFFE1C
FFFF0E
07070E
07078E
07038E
0F038E
0E038E
0E038E
0E038E
0E038E
1E038E
1C0380
1C0380
1C0380
380780
380700
780F00
70FE00
F0FE00
E0F800
ENDCHAR
STARTCHAR 304D
ENCODING 12365
SWIDTH 833 0
DWIDTH 25 0
BBX 21 26 1 -1
BITMAP
007000
007000
FFFFF0
FFFFF0
FFFFF0
003800
001C00
001C00
FFFFF8
FFFFF8
FFFFF8
000700
000380
000380
0FF9C0
3FFFC0
7FFFE0
F007E0
E000E0
E00000
F00000
700000
7C0000
3FFF80
1FFF80
07FF80
ENDCHAR
STARTCHAR 304E
ENCODING 12366
SWIDTH 833 0
DWIDTH 25 0
BBX 22 26 1 -1
BITMAP
007000
00701C
FFFDDC
FFFDDC
FFFDC0
003800
001C00
001C00
FFFFF8
FFFFF8
FFFFF8
000700
000380
000380
0FF9C0
3FFFC0
7FFFE0
F007E0
E000E0
E00000
F00000
700000
7C0000
3FFF80
1FFF80
07FF80
ENDCHAR
STARTCHAR 304F
ENCODING 12367
SWIDTH 833 0
DWIDTH 25 0
BBX 15 26 4 -1
BITMAP
001C
003C
0078
00F0
01E0
03C0
0780
0F00
1E00
3C00
7800
F000
F000
F000
7800
3C00
1E00
0F00
0780
03C0
01E0
00F0
0078
003C
001E
000E
ENDCHAR
STARTCHAR 3050
ENCODING 12368
SWIDTH 833 0
DWIDTH 25 0
BBX 19 26 4 -1
BITMAP
001C00
003C00
007800
00F000
01E0E0
03CEE0
078EE0
0F0EE0
1E0E00
3C0000
780000
F00000
F00000
F00000
780000
3C0000
1E0000
0F0000
078000
03C000
01E000
00F000
007800
003C00
001E00
000E00
ENDCHAR
STARTCHAR 3051
ENCODING 12369
SWIDTH 833 0
DWIDTH 25 0
BBX 22 25 0 -1
BITMAP
7001C0
7001C0
7001C0
F001C0
E001C0
E001C0
E1FFFC
E1FFFC
E1FFFC
E001C0
E001C0
E001C0
E001C0
E001C0
E001C0
E001C0
E001C0
E001C0
E001C0
E003C0
F00380
700F80
707F00
707E00
007800
ENDCHAR
STARTCHAR 3052
ENCODING 12370
SWIDTH 833 0
DWIDTH 25 0
BBX 22 25 0 -1
BITMAP
7001DC
7001DC
7001DC
F00000
E001C0
E001C0
E1FFFC
E1FFFC
E1FFFC
E001C0
E001C0
E001C0
E001C0
E001C0
E001C0
E001C0
E001C0
E001C0
E001C0
E003C0
F00380
700F80
707F00
707E00
007800
ENDCHAR
STARTCHAR 3053
ENCODING 12371
SWIDTH 833 0
DWIDTH 25 0
BBX 21 24 1 -1
BITMAP
3FFFF0
3FFFF0
3FFFF0
000000
000000
000000
000000
000000
000000
000000
000000
380000
780000
700000
F00000
E00000
E00000
E00000
E00000
F00000
780000
7FFFF8
1FFFF8
07FFF8
ENDCHAR
STARTCHAR 3054
ENCODING 12372
SWIDTH 833 0
DWIDTH 25 0
BBX 21 24 1 -1
BITMAP
3FFFF0
3FFFF0
3FFFF0
000000
000000
0003B8
0003B8
0003B8
000000
000000
000000
380000
780000
700000
F00000
E00000
E00000
E00000
E00000
F00000
780000
7FFFF8
1FFFF8
07FFF8
ENDCHAR
STARTCHAR 3055
ENCODING 12373
SWIDTH 833 0
DWIDTH 25 0
BBX 22 26 0 -1
BITMAP
007000
003800
003800
001C00
001C00
FFFFFC
FFFFFC
FFFFFC
000700
000700
000380
000380
03F9C0
0FFFC0
1FFFE0
3C07E0
3800F0
700000
700000
700000
780000
380000
3E0000
1FFFC0
0FFFC0
03FFC0
ENDCHAR
STARTCHAR 3056
ENCODING 12374
SWIDTH 833 0
DWIDTH 25 0
BBX 23 26 0 -1
BITMAP
0070EE
0038EE
0038EE
001C00
001C00
FFFFFC
FFFFFC
FFFFFC
000700
000700
000380
000380
03F9C0
0FFFC0
1FFFE0
3C07E0
3800F0
700000
700000
700000
780000
380000
3E0000
1FFFC0
0FFFC0
03FFC0
ENDCHAR
STARTCHAR 3057
ENCODING 12375
SWIDTH 833 0
DWIDTH 25 0
BBX 19 26 2 -1
BITMAP
E00000
E00000
E00000
E00000
E00000
E00000
E00000
E00000
E00000
E00000
E00000
E00000
E000E0
E000E0
E000E0
E000E0
E000E0
E000E0
E000E0
E001E0
F001C0
7003C0
7C0F80
3FFF00
1FFE00
07F800
ENDCHAR
STARTCHAR 3058
ENCODING 12376
SWIDTH 833 0
DWIDTH 25 0
BBX 19 26 2 -1
BITMAP
E00000
E001C0
E01DC0
E01DC0
E01DC0
E01C00
E00000
E00000
E00000
E00000
E00000
E00000
E000E0
E000E0
E000E0
E000E0
E000E0
E000E0
E000E0
E001E0
F001C0
7003C0
7C0F80
3FFF00
1FFE00
07F800
ENDCHAR
STARTCHAR 3059
ENCODING 12377
SWIDTH 833 0
DWIDTH 25 0
BBX 23 26 0 -1
BITMAP
0001C0
0001C0
0001C0
0001C0
FFFFFE
FFFFFE
FFFFFE
0001C0
0001C0
01FDC0
07FFC0
0FFFC0
0E03C0
1C01C0
1C01C0
1C01C0
0E03C0
0FFFC0
07FFC0
01FDC0
0001C0
000380
000780
07FF00
07FE00
07F800
ENDCHAR
STARTCHAR 305A
ENCODING 12378
SWIDTH 833 0
DWIDTH 25 0
BBX 23 26 0 -1
BITMAP
0001DC
0001DC
0001DC
000000
FFFFFE
FFFFFE
FFFFFE
0001C0
0001C0
01FDC0
07FFC0
0FFFC0
0E03C0
1C01C0
1C01C0
1C01C0
0E03C0
0FFFC0
07FFC0
01FDC0
0001C0
000380
000780
07FF00
07FE00
07F800
ENDCHAR
STARTCHAR 305B
ENCODING 12379
SWIDTH 833 0
DWIDTH 25 0
BBX 23 24 0 0
BITMAP
0E00E0
0E00E0
0E00E0
0E00E0
FFFFFE
FFFFFE
FFFFFE
0E00E0
0E00E0
0E00E0
0E00E0
0E00E0
0E01C0
0E1FC0
0E1F80
0E1E00
0E0000
0E0000
0E0000
070000
078000
03FFF0
01FFF0
007FF0
ENDCHAR
STARTCHAR 305C
ENCODING 12380
SWIDTH 833 0
DWIDTH 25 0
BBX 23 25 0 0
BITMAP
00000E
0E00EE
0E00EE
0E00E0
0E0000
FFFFFE
FFFFFE
FFFFFE
0E00E0
0E00E0
0E00E0
0E00E0
0E00E0
0E01C0
0E1FC0
0E1F80
0E1E00
0E0000
0E0000
0E0000
070000
078000
03FFF0
01FFF0
007FF0
ENDCHAR
STARTCHAR 305D
ENCODING 12381
SWIDTH 833 0
DWIDTH 25 0
BBX 23 26 0 -1
BITMAP
0FFFE0
0FFFE0
0FFFE0
0003C0
000F00
001E00
007C00
00F000
03E000
07801E
0F07FE
1EFFFE
7FFFE0
FFFE00
FFF000
F1C000
03C000
038000
038000
038000
03C000
01C000
01F000
00FFF0
007FF0
001FF0
ENDCHAR
STARTCHAR 305E
ENCODING 12382
SWIDTH 833 0
DWIDTH 25 0
BBX 23 26 0 -1
BITMAP
0FFFE0
0FFFE0
0FFFE0
0003C0
000F0E
001EEE
007CEE
00F0E0
03E000
07801E
0F07FE
1EFFFE
7FFFE0
FFFE00
FFF000
F1C000
03C000
038000
038000
038000
03C000
01C000
01F000
00FFF0
007FF0
001FF0
ENDCHAR
STARTCHAR 305F
ENCODING 12383
SWIDTH 833 0
DWIDTH 25 0
BBX 22 26 1 -1
BITMAP
070000
070000
070000
070000
FFFFE0
FFFFE0
FFFFE0
0E0000
1C0000
1C0000
1C7FF8
1C7FF8
1C7FF8
380000
380000
380000
380000
380000
70E000
70E000
70E000
70E000
707000
E07FFC
E03FFC
E00FFC
ENDCHAR
STARTCHAR 3060
ENCODING 12384
SWIDTH 833 0
DWIDTH 25 0
BBX 23 26 0 -1
BITMAP
0700EE
0700EE
0700EE
070000
FFFFE0
FFFFE0
FFFFE0
0E0000
1C0000
1C0000
1C7FF8
1C7FF8
1C7FF8
380000
380000
380000
380000
380000
70E000
70E000
70E000
70E000
707000
E07FFC
E03FFC
E00FFC
ENDCHAR
STARTCHAR 3061
ENCODING 12385
SWIDTH 833 0
DWIDTH 25 0
BBX 22 26 0 -1
BITMAP
00E000
00E000
00E000
01C000
01C000
FFFFF8
FFFFF8
FFFFF8
038000
078000
070000
0F0000
0FFF80
0FFFE0
1FFFF0
1E0078
3C0038
00001C
00001C
00001C
00001C
000038
0000F8
0FFFF0
0FFFC0
0FFF00
ENDCHAR
STARTCHAR 3062
ENCODING 12386
SWIDTH 833 0
DWIDTH 25 0
BBX 23 26 0 -1
BITMAP
00E0EE
00E0EE
00E0EE
01C000
01C000
FFFFF8
FFFFF8
FFFFF8
038000
078000
070000
0F0000
0FFF80
0FFFE0
1FFFF0
1E0078
3C0038
00001C
00001C
00001C
00001C
000038
0000F8
0FFFF0
0FFFC0
0FFF00
ENDCHAR
STARTCHAR 3063
ENCODING 12387
SWIDTH 833 0
DWIDTH 25 0
BBX 18 16 0 0
BITMAP
FFF800
FFFE00
FFFF00
000780
000380
0001C0
0001C0
0001C0
0001C0
0001C0
0001C0
000380
000F80
1FFF00
1FFC00
1FF000
ENDCHAR
STARTCHAR 3064
ENCODING 12388
SWIDTH 833 0
DWIDTH 25 0
BBX 22 19 1 1
BITMAP
FFFF00
FFFFC0
FFFFE0
0001F0
000078
000038
00003C
00001C
00001C
00001C
00001C
00001C
00003C
000038
000078
0001F0
0FFFE0
0FFFC0
0FFE00
ENDCHAR
STARTCHAR 3065
ENCODING 12389
SWIDTH 833 0
DWIDTH 25 0
BBX 22 24 1 1
BITMAP
00001C
0001DC
0001DC
0001C0
000000
FFFF00
FFFFC0
FFFFE0
0001F0
000078
000038
00003C
00001C
00001C
00001C
00001C
00001C
00003C
000038
000078
0001F0
0FFFE0
0FFFC0
0FFE00
ENDCHAR
STARTCHAR 3066
ENCODING 12390
SWIDTH 833 0
DWIDTH 25 0
BBX 22 22 0 0
BITMAP
FFFFFC
FFFFFC
FFFFFC
003F00
00F800
01E000
03C000
078000
070000
0F0000
0E0000
0E0000
0E0000
0E0000
0E0000
0F0000
070000
078000
03F000
01FFF0
00FFF0
001FF0
ENDCHAR
STARTCHAR 3067
ENCODING 12391
SWIDTH 833 0
DWIDTH 25 0
BBX 22 22 0 0
BITMAP
FFFFFC
FFFFFC
FFFFFC
003F00
00F800
01E01C
03C1DC
0781DC
0701C0
0F0000
0E0000
0E0000
0E0000
0E0000
0E0000
0F0000
070000
078000
03F000
01FFF0
00FFF0
001FF0
ENDCHAR
STARTCHAR 3068
ENCODING 12392
SWIDTH 833 0
DWIDTH 25 0
BBX 20 26 1 -1
BITMAP
070000
070000
070000
070000
070000
070000
070000
038000
038070
01C7F0
01FFF0
07FF80
1FF800
3F8000
7C0000
700000
F00000
E00000
E00000
E00000
F00000
700000
7C0000
3FFFF0
1FFFF0
07FFF0
ENDCHAR
STARTCHAR 3069
ENCODING 12393
SWIDTH 833 0
DWIDTH 25 0
BBX 21 26 1 -1
BITMAP
070000
070038
0703B8
0703B8
0703B8
070380
070000
038000
038070
01C7F0
01FFF0
07FF80
1FF800
3F8000
7C0000
700000
F00000
E00000
E00000
E00000
F00000
700000
7C0000
3FFFF0
1FFFF0
07FFF0
ENDCHAR
STARTCHAR 306A
ENCODING 12394
SWIDTH 833 0
DWIDTH 25 0
BBX 23 26 0 -1
BITMAP
070000
070000
070000
070000
FFF3E0
FFF3F8
FFF3FC
0E001E
0E000E
1E0000
1C0380
3C0380
380380
780380
700380
F00380
E07F80
E1FFE0
C1FFF0
03C3F8
0383BC
03839C
03C78C
03FF04
01FF00
007C00
ENDCHAR
STARTCHAR 306B
ENCODING 12395
SWIDTH 833 0
DWIDTH 25 0
BBX 22 25 0 -1
BITMAP
700000
700000
700000
F0FFFC
E0FFFC
E0FFFC
E00000
E00000
E00000
E00000
E00000
E00000
E00000
E0E000
E1E000
E1C000
E1C000
E1C000
E1C000
E1E000
E0F000
F0FFFC
707FFC
701FFC
700000
ENDCHAR
STARTCHAR 306C
ENCODING 12396
SWIDTH 833 0
DWIDTH 25 0
BBX 23 24 0 0
BITMAP
000380
038380
038380
038380
03FF80
0FFFE0
1FFFF0
3F87F8
3B873C
73871C
738E1E
F38E0E
E38E0E
E39C0E
E1DC0E
E1F80E
E1F9EE
E0F7FE
F077FE
70EE1E
79EE1C
3FCFFE
1F8FFE
0F07CE
ENDCHAR
STARTCHAR 306D
ENCODING 12397
SWIDTH 833 0
DWIDTH 25 0
BBX 23 26 0 -1
BITMAP
070000
070000
070000
070000
070000
FF1FC0
FF7FF0
FFFFF8
07E03C
07C01C
07800E
0F800E
1F000E
1F000E
3F000E
3F000E
7703CE
770FFE
E71FFE
E71C3E
C7381C
C7381C
073C3E
071FFE
071FF6
0707C0
ENDCHAR
STARTCHAR 306E
ENCODING 12398
SWIDTH 833 0
DWIDTH 25 0
BBX 23 23 0 0
BITMAP
03FF80
0FFFE0
1FFFF0
3E38F8
78383C
70381C
F0381E
E0380E
E0380E
E0380E
E0380E
E0380E
E0380E
E0380E
E0380E
E0380E
E0380E
F0781E
70701C
7CF07C
3FE1F8
1FE1F0
0781C0
ENDCHAR
STARTCHAR 306F
ENCODING 12399
SWIDTH 833 0
DWIDTH 25 0
BBX 23 26 0 -1
BITMAP
7000E0
7000E0
7000E0
F000E0
E000E0
E1FFFE
E1FFFE
E1FFFE
E000E0
E000E0
E000E0
E000E0
E000E0
E000E0
E000E0
E03FE0
E0FFF0
E0FFF8
E1E0FC
E1C0FE
E1C0EE
E1C0E6
F1E1E0
70FFC0
70FFC0
703F00
ENDCHAR
STARTCHAR 3070
ENCODING 12400
SWIDTH 833 0
DWIDTH 25 0
BBX 23 26 0 -1
BITMAP
7000EE
7000EE
7000EE
F000E0
E00000
E1FFFE
E1FFFE
E1FFFE
E000E0
E000E0
E000E0
E000E0
E000E0
E000E0
E000E0
E03FE0
E0FFF0
E0FFF8
E1E0FC
E1C0FE
E1C0EE
E1C0E6
F1E1E0
70FFC0
70FFC0
703F00
ENDCHAR
STARTCHAR 3071
ENCODING 12401
SWIDTH 833 0
DWIDTH 25 0
BBX 23 26 0 -1
BITMAP
70007C
7000FE
7000E6
F000E6
E000FE
E1FFFC
E1FFFE
E1FFFE
E000E0
E000E0
E000E0
E000E0
E000E0
E000E0
E000E0
E03FE0
E0FFF0
E0FFF8
E1E0FC
E1C0FE
E1C0EE
E1C0E6
F1E1E0
70FFC0
70FFC0
703F00
ENDCHAR
STARTCHAR 3072
ENCODING 12402
SWIDTH 833 0
DWIDTH 25 0
BBX 23 24 0 -1
BITMAP
FF8000
FF81C0
FF81E0
0701F0
0E01F8
0E01FC
1C01DE
1C01CE
3C01C6
3801C0
3801C0
3801C0
3801C0
3801C0
3801C0
3801C0
3801C0
380380
3C0380
1C0780
1F0F00
0FFF00
07FC00
01F800
ENDCHAR
STARTCHAR 3073
ENCODING 12403
SWIDTH 833 0
DWIDTH 25 0
BBX 23 26 0 -1
BITMAP
0000E0
0000EE
FF80EE
FF800E
FF81E0
0701F0
0E01F8
0E01FC
1C01DE
1C01CE
3C01C6
3801C0
3801C0
3801C0
3801C0
3801C0
3801C0
3801C0
3801C0
380380
3C0380
1C0780
1F0F00
0FFF00
07FC00
01F800
ENDCHAR
STARTCHAR 3074
ENCODING 12404
SWIDTH 833 0
DWIDTH 25 0
BBX 23 26 0 -1
BITMAP
00003C
00007E
FF8066
FF8066
FF81FE
0701FC
0E01F8
0E01FC
1C01DE
1C01CE
3C01C6
3801C0
3801C0
3801C0
3801C0
3801C0
3801C0
3801C0
3801C0
380380
3C0380
1C0780
1F0F00
0FFF00
07FC00
01F800
ENDCHAR
STARTCHAR 3075
ENCODING 12405
SWIDTH 833 0
DWIDTH 25 0
BBX 23 25 0 -1
BITMAP
03F800
03FF00
03FFC0
000FC0
0001C0
000000
01C000
01C000
39C038
39C038
79C03C
71E01C
70FC1C
70FF1C
F03F1E
E0078E
E0038E
E001CE
E001CE
E001CE
E7038E
E7878E
03FF00
01FF00
00FC00
ENDCHAR
STARTCHAR 3076
ENCODING 12406
SWIDTH 833 0
DWIDTH 25 0
BBX 23 25 0 -1
BITMAP
03F8EE
03FEEE
03FEEE
000F00
0003C0
0001C0
01C000
01C000
39C038
39C038
79C03C
71E01C
70FC1C
70FF1C
F03F1E
E0078E
E0038E
E001CE
E001CE
E001CE
E7038E
E7878E
03FF00
01FF00
00FC00
ENDCHAR
STARTCHAR 3077
ENCODING 12407
SWIDTH 833 0
DWIDTH 25 0
BBX 23 25 0 -1
BITMAP
03F83C
03FF7E
03FFE6
000FE6
0001FE
00003C
01C000
01C000
39C038
39C038
79C03C
71E01C
70FC1C
70FF1C
F03F1E
E0078E
E0038E
E001CE
E001CE
E001CE
E7038E
E7878E
03FF00
01FF00
00FC00
ENDCHAR
STARTCHAR 3078
ENCODING 12408
SWIDTH 833 0
DWIDTH 25 0
BBX 23 18 0 2
BITMAP
01C000
03E000
07F000
0F7800
0E3C00
1E1E00
3C0F00
780700
700380
F001C0
E000E0
C000F0
800078
00003C
00001E
00000E
000006
000002
ENDCHAR
STARTCHAR 3079
ENCODING 12409
SWIDTH 833 0
DWIDTH 25 0
BBX 23 20 0 2
BITMAP
00000E
0000EE
01C0EE
03E0EE
07F0E0
0F7800
0E3C00
1E1E00
3C0F00
780700
700380
F001C0
E000E0
C000F0
800078
00003C
00001E
00000E
000006
000002
ENDCHAR
STARTCHAR 307A
ENCODING 12410
SWIDTH 833 0
DWIDTH 25 0
BBX 23 20 0 2
BITMAP
00003C
00007E
01C066
03E066
07F07E
0F783C
0E3C00
1E1E00
3C0F00
780700
700380
F001C0
E000E0
C000F0
800078
00003C
00001E
00000E
000006
000002
ENDCHAR
STARTCHAR 307B
ENCODING 12411
SWIDTH 833 0
DWIDTH 25 0
BBX 23 26 0 -1
BITMAP
700000
700000
71FFFE
F1FFFE
E1FFFE
E000E0
E000E0
E000E0
E1FFFE
E1FFFE
E1FFFE
E000E0
E000E0
E000E0
E000E0
E03FE0
E0FFF0
E0FFF8
E1E0FC
E1C0FE
E1C0EE
E1C0E6
F1E1E0
70FFC0
70FFC0
703F00
ENDCHAR
STARTCHAR 307C
ENCODING 12412
SWIDTH 833 0
DWIDTH 25 0
BBX 23 26 0 -1
BITMAP
7000EE
7000EE
71FEEE
F1FE00
E1FFFE
E000E0
E000E0
E000E0
E1FFFE
E1FFFE
E1FFFE
E000E0
E000E0
E000E0
E000E0
E03FE0
E0FFF0
E0FFF8
E1E0FC
E1C0FE
E1C0EE
E1C0E6
F1E1E0
70FFC0
70FFC0
703F00
ENDCHAR
STARTCHAR 307D
ENCODING 12413
SWIDTH 833 0
DWIDTH 25 0
BBX 23 26 0 -1
BITMAP
70003C
70007E
71FFE6
F1FFE6
E1FFFE
E000FC
E000E0
E000E0
E1FFFC
E1FFFC
E1FFFC
E000E0
E000E0
E000E0
E000E0
E03FE0
E0FFF0
E0FFF8
E1E0FC
E1C0FE
E1C0EE
E1C0E6
F1E1E0
70FFC0
70FFC0
703F00
ENDCHAR
STARTCHAR 307E
ENCODING 12414
SWIDTH 833 0
DWIDTH 25 0
BBX 21 26 1 -1
BITMAP
003800
003800
003800
003800
FFFFF8
FFFFF8
FFFFF8
003800
003800
003800
7FFFF0
7FFFF0
7FFFF0
003800
003800
003800
07F800
1FFE00
3FFF80
783FC0
703BE0
7038F0
787870
3FF030
3FF000
0FC000
ENDCHAR
STARTCHAR 307F
ENCODING 12415
SWIDTH 833 0
DWIDTH 25 0
BBX 23 24 0 -1
BITMAP
3FF000
3FF000
3FF000
007070
007070
007070
007070
007070
007070
0FFE70
3FFFF0
7FFFF8
7071FC
E0707E
E0707E
E07076
E07072
E0E070
E0E0F0
71C0E0
7FC1E0
3F83C0
0F0780
000700
ENDCHAR
STARTCHAR 3080
ENCODING 12416
SWIDTH 833 0
DWIDTH 25 0
BBX 23 26 0 -1
BITMAP
070000
070000
070000
070000
FFF1E0
FFF1F8
FFF1FC
07001C
07000E
07000E
1F0000
7F8000
7F8000
E38038
E38038
E38038
E38038
E38038
7F8038
7F8038
1F0038
070038
078070
03FFF0
03FFE0
00FF80
ENDCHAR
STARTCHAR 3081
ENCODING 12417
SWIDTH 833 0
DWIDTH 25 0
BBX 23 24 0 0
BITMAP
000380
038380
038380
038380
03FF80
0FFFE0
1FFFF0
3F87F8
3B873C
73871C
738E1E
F38E0E
E38E0E
E1DC0E
E1DC0E
E0FC0E
E0F80E
E0780E
E0701E
70701E
78E07C
3FE3F8
3FC3F0
0F03C0
ENDCHAR
STARTCHAR 3082
ENCODING 12418
SWIDTH 833 0
DWIDTH 25 0
BBX 22 26 0 -1
BITMAP
0E0000
0E0000
0E0000
0E0000
FFFF80
FFFF80
FFFF80
0E0000
0E0000
0E0000
0E0000
FFFF80
FFFF80
FFFF80
0E0000
0E001C
0E001C
0E001C
0E001C
0E003C
0F0038
070078
07C1F0
03FFE0
01FFC0
007F00
ENDCHAR
STARTCHAR 3083
ENCODING 12419
SWIDTH 833 0
DWIDTH 25 0
BBX 18 19 0 -1
BITMAP
1C0E00
1C0E00
1C0E00
1C1C00
1FFC00
FFFF00
FFFF80
FC0380
1C01C0
0E01C0
0E01C0
0E03C0
0E3F80
0E3F80
0E3E00
070000
070000
070000
070000
ENDCHAR
STARTCHAR 3084
ENCODING 12420
SWIDTH 833 0
DWIDTH 25 0
BBX 23 26 0 -1
BITMAP
0E01C0
0E01C0
0E01C0
0E0380
070380
070380
07FFE0
FFFFF8
FFFFFC
FF001C
07800E
03800E
03800E
03800E
03800E
03801C
03C7FC
01C7F8
01C7E0
01C000
01C000
01E000
00E000
00E000
00E000
00E000
ENDCHAR
STARTCHAR 3085
ENCODING 12421
SWIDTH 833 0
DWIDTH 25 0
BBX 18 20 1 -1
BITMAP
007000
007000
E07000
E07000
E7FC00
EFFF00
FFFF80
F87380
F071C0
F071C0
E071C0
E071C0
E673C0
E7FF80
E7FF80
E3FE00
E0E000
01E000
01C000
01C000
ENDCHAR
STARTCHAR 3086
ENCODING 12422
SWIDTH 833 0
DWIDTH 25 0
BBX 23 26 0 -1
BITMAP
001C00
001C00
001C00
E01C00
E01C00
E1FFC0
E7FFF0
EFFFF8
EE1C7C
FC1C1C
F81C1E
F01C0E
F01C0E
E01C0E
E01C0E
E71C0E
E71C1C
E79C3C
E3FFF8
E1FFF0
E07FC0
003C00
003800
007800
00F000
00E000
ENDCHAR
STARTCHAR 3087
ENCODING 12423
SWIDTH 833 0
DWIDTH 25 0
BBX 17 20 1 -1
BITMAP
01C000
01C000
01C000
01FF80
01FF80
01FF80
01C000
01C000
01C000
01C000
1FC000
7FF000
7FFC00
E1FE00
E1DF00
E1C780
E1C380
7FC180
7F8080
1F0000
ENDCHAR
STARTCHAR 3088
ENCODING 12424
SWIDTH 833 0
DWIDTH 25 0
BBX 21 26 1 -1
BITMAP
003800
003800
003800
003800
003800
003800
003FF8
003FF8
003FF8
003800
003800
003800
003800
003800
003800
0FF800
3FFE00
7FFF80
F03FC0
E03BE0
E038F0
E03878
F07838
7FF018
7FF000
1FC000
ENDCHAR
STARTCHAR 3089
ENCODING 12425
SWIDTH 833 0
DWIDTH 25 0
BBX 20 26 1 -1
BITMAP
0FF000
0FFE00
0FFF80
001F80
000380
380000
780000
700000
700000
F00000
E1FE00
E7FF80
EFFFC0
FF03E0
FC00F0
F80070
F00070
E00070
000070
0000F0
0000E0
0001E0
0007C0
0FFFC0
0FFF00
0FFC00
ENDCHAR
STARTCHAR 308A
ENCODING 12426
SWIDTH 833 0
DWIDTH 25 0
BBX 18 25 2 -1
BITMAP
0001C0
E001C0
E001C0
E001C0
E001C0
E001C0
E001C0
E001C0
E001C0
E001C0
E001C0
E001C0
F001C0
7F01C0
7F01C0
1F01C0
0001C0
0001C0
0003C0
000380
000780
001F00
1FFE00
1FFC00
1FF000
ENDCHAR
STARTCHAR 308B
ENCODING 12427
SWIDTH 833 0
DWIDTH 25 0
BBX 21 25 1 -1
BITMAP
3FFF80
3FFF80
3FFF80
000F00
001E00
003C00
007800
00F000
01E000
03FF00
07FFC0
0FFFE0
1F00F0
3C0070
780038
F00038
E1F038
07FC38
0FFE38
1E0E78
1C0770
1E07F0
0FFFE0
0FFFC0
03FF00
ENDCHAR
STARTCHAR 308C
ENCODING 12428
SWIDTH 833 0
DWIDTH 25 0
BBX 23 26 0 -1
BITMAP
070000
070000
070000
070000
070000
FF1F00
FF7FC0
FFFFC0
07E1E0
07C0E0
0780E0
0F80E0
1F00E0
1F00E0
3F00E0
3F00E0
7700E0
7700E0
E700E0
E700E0
C700E0
C700F0
07007E
07007E
07001E
070000
ENDCHAR
STARTCHAR 308D
ENCODING 12429
SWIDTH 833 0
DWIDTH 25 0
BBX 21 25 1 -1
BITMAP
3FFF80
3FFF80
3FFF80
000F00
001E00
003C00
007800
00F000
01E000
03FF00
07FFC0
0FFFE0
1F00F0
3C0070
780038
F00038
E00038
000038
000038
000078
000070
0001F0
0FFFE0
0FFFC0
0FFF00
ENDCHAR
STARTCHAR 308E
ENCODING 12430
SWIDTH 833 0
DWIDTH 25 0
BBX 18 20 1 -1
BITMAP
0E0000
0E0000
0E0000
0E0000
FE0000
FEFC00
FFFF00
0FFF80
1F0380
3F01C0
7E01C0
7E01C0
EE01C0
EE01C0
CE01C0
CE0380
0E7F80
0E7F00
0E7C00
0E0000
ENDCHAR
STARTCHAR 308F
ENCODING 12431
SWIDTH 833 0
DWIDTH 25 0
BBX 23 26 0 -1
BITMAP
070000
070000
070000
070000
070000
FF1FC0
FF7FF0
FFFFF8
07E03C
07C01C
07800E
0F800E
1F000E
1F000E
3F000E
3F000E
77000E
77000E
E7000E
E7000E
C7001C
C7003C
071FF8
071FF0
071FC0
070000
ENDCHAR
STARTCHAR 3090
ENCODING 12432
SWIDTH 33 0
DWIDTH 1 0
BBX 0 0 0 0
BITMAP
ENDCHAR
STARTCHAR 3091
ENCODING 12433
SWIDTH 33 0
DWIDTH 1 0
BBX 0 0 0 0
BITMAP
ENDCHAR
STARTCHAR 3092
ENCODING 12434
SWIDTH 833 0
DWIDTH 25 0
BBX 23 26 0 -1
BITMAP
007000
007000
00F000
00E000
3FFFF0
3FFFF0
3FFFF0
078000
0F0000
0F0000
1FF800
1FFC1E
3FFEFE
781FFE
F07FE0
E1FF00
03EE00
078E00
0E0E00
0E0E00
0E0000
0E0000
0F0000
07FFF0
03FFF0
00FFF0
ENDCHAR
STARTCHAR 3093
ENCODING 12435
SWIDTH 833 0
DWIDTH 25 0
BBX 23 26 0 -1
BITMAP
003800
003800
007000
007000
00E000
00E000
00E000
01C000
01C000
038000
038000
03F000
07FC00
07FC00
0F1E00
0E0E0E
0E0E0E
1C0E0E
1C0E0E
3C0E0E
380E0E
380E0E
780F1C
7007FC
F007F8
E001E0
ENDCHAR
STARTCHAR 3094
ENCODING 12436
SWIDTH 833 0
DWIDTH 25 0
BBX 21 26 2 -1
BITMAP
1FE000
1FFF00
1FFF00
003C00
0003B8
0003B8
0003B8
07F800
FFFE00
FFFF00
F80F80
0003C0
0001E0
0000E0
0000E0
0000E0
0000E0
0000E0
0000E0
0001E0
0001C0
0003C0
000F80
1FFF80
1FFE00
1FF800
ENDCHAR
STARTCHAR 3095
ENCODING 12437
SWIDTH 33 0
DWIDTH 1 0
BBX 0 0 0 0
BITMAP
ENDCHAR
STARTCHAR 3096
ENCODING 12438
SWIDTH 33 0
DWIDTH 1 0
BBX 0 0 0 0
BITMAP
ENDCHAR
STARTCHAR 3099
ENCODING 12441
SWIDTH 33 0
DWIDTH 1 0
BBX 0 0 0 0
BITMAP
ENDCHAR
STARTCHAR 309A
ENCODING 12442
SWIDTH 33 0
DWIDTH 1 0
BBX 0 0 0 0
BITMAP
ENDCHAR
STARTCHAR 309B
ENCODING 12443
SWIDTH 33 0
DWIDTH 1 0
BBX 0 0 0 0
BITMAP
ENDCHAR
STARTCHAR 309C
ENCODING 12444
SWIDTH 33 0
DWIDTH 1 0
BBX 0 0 0 0
BITMAP
ENDCHAR
STARTCHAR 309D
ENCODING 12445
SWIDTH 33 0
DWIDTH 1 0
BBX 0 0 0 0
BITMAP
ENDCHAR
STARTCHAR 309E
ENCODING 12446
SWIDTH 33 0
DWIDTH 1 0
BBX 0 0 0 0
BITMAP
ENDCHAR
STARTCHAR 309F
ENCODING 12447
SWIDTH 33 0
DWIDTH 1 0
BBX 0 0 0 0
BITMAP
ENDCHAR
STARTCHAR 30A1
ENCODING 12449
SWIDTH 33 0
DWIDTH 1 0
BBX 0 0 0 0
BITMAP
ENDCHAR
STARTCHAR 30A2
ENCODING 12450
SWIDTH 33 0
DWIDTH 1 0
BBX 0 0 0 0
BITMAP
ENDCHAR
STARTCHAR 30A3
ENCODING 12451
SWIDTH 33 0
DWIDTH 1 0
BBX 0 0 0 0
BITMAP
ENDCHAR
STARTCHAR 30A4
ENCODING 12452
SWIDTH 33 0
DWIDTH 1 0
BBX 0 0 0 0
BITMAP
ENDCHAR
STARTCHAR 30A5
ENCODING 12453
SWIDTH 33 0
DWIDTH 1 0
BBX 0 0 0 0
BITMAP
ENDCHAR
STARTCHAR 30A6
ENCODING 12454
SWIDTH 33 0
DWIDTH 1 0
BBX 0 0 0 0
BITMAP
ENDCHAR
STARTCHAR 30A7
ENCODING 12455
SWIDTH 33 0
DWIDTH 1 0
BBX 0 0 0 0
BITMAP
ENDCHAR
STARTCHAR 30A8
ENCODING 12456
SWIDTH 33 0
DWIDTH 1 0
BBX 0 0 0 0
BITMAP
ENDCHAR
STARTCHAR 30A9
ENCODING 12457
SWIDTH 33 0
DWIDTH 1 0
BBX 0 0 0 0
BITMAP
ENDCHAR
STARTCHAR 30AA
ENCODING 12458
SWIDTH 33 0
DWIDTH 1 0
BBX 0 0 0 0
BITMAP
ENDCHAR
STARTCHAR 30AB
ENCODING 12459
SWIDTH 33 0
DWIDTH 1 0
BBX 0 0 0 0
BITMAP
ENDCHAR
STARTCHAR 30AC
ENCODING 12460
SWIDTH 33 0
DWIDTH 1 0
BBX 0 0 0 0
BITMAP
ENDCHAR
STARTCHAR 30AD
ENCODING 12461
SWIDTH 33 0
DWIDTH 1 0
BBX 0 0 0 0
BITMAP
ENDCHAR
STARTCHAR 30AE
ENCODING 12462
SWIDTH 33 0
DWIDTH 1 0
BBX 0 0 0 0
BITMAP
ENDCHAR
STARTCHAR 30AF
ENCODING 12463
SWIDTH 33 0
DWIDTH 1 0
BBX 0 0 0 0
BITMAP
ENDCHAR
STARTCHAR 30B0
ENCODING 12464
SWIDTH 33 0
DWIDTH 1 0
BBX 0 0 0 0
BITMAP
ENDCHAR
STARTCHAR 30B1
ENCODING 12465
SWIDTH 33 0
DWIDTH 1 0
BBX 0 0 0 0
BITMAP
ENDCHAR
STARTCHAR 30B2
ENCODING 12466
SWIDTH 33 0
DWIDTH 1 0
BBX 0 0 0 0
BITMAP
ENDCHAR
STARTCHAR 30B3
ENCODING 12467
SWIDTH 33 0
DWIDTH 1 0
BBX 0 0 0 0
BITMAP
ENDCHAR
STARTCHAR 30B4
ENCODING 12468
SWIDTH 33 0
DWIDTH 1 0
BBX 0 0 0 0
BITMAP
ENDCHAR
STARTCHAR 30B5
ENCODING 12469
SWIDTH 33 0
DWIDTH 1 0
BBX 0 0 0 0
BITMAP
ENDCHAR
STARTCHAR 30B6
ENCODING 12470
SWIDTH 33 0
DWIDTH 1 0
BBX 0 0 0 0
BITMAP
ENDCHAR
STARTCHAR 30B7
ENCODING 12471
SWIDTH 33 0
DWIDTH 1 0
BBX 0 0 0 0
BITMAP
ENDCHAR
STARTCHAR 30B8
ENCODING 12472
SWIDTH 33 0
DWIDTH 1 0
BBX 0 0 0 0
BITMAP
ENDCHAR
STARTCHAR 30B9
ENCODING 12473
SWIDTH 33 0
DWIDTH 1 0
BBX 0 0 0 0
BITMAP
ENDCHAR
STARTCHAR 30BA
ENCODING 12474
SWIDTH 33 0
DWIDTH 1 0
BBX 0 0 0 0
BITMAP
ENDCHAR
STARTCHAR 30BB
ENCODING 12475
SWIDTH 33 0
DWIDTH 1 0
BBX 0 0 0 0
BITMAP
ENDCHAR
STARTCHAR 30BC
ENCODING 12476
SWIDTH 33 0
DWIDTH 1 0
BBX 0 0 0 0
BITMAP
ENDCHAR
STARTCHAR 30BD
ENCODING 12477
SWIDTH 33 0
DWIDTH 1 0
BBX 0 0 0 0
BITMAP
ENDCHAR
STARTCHAR 30BE
ENCODING 12478
SWIDTH 33 0
DWIDTH 1 0
BBX 0 0 0 0
BITMAP
ENDCHAR
STARTCHAR 30BF
ENCODING 12479
SWIDTH 33 0
DWIDTH 1 0
BBX 0 0 0 0
BITMAP
ENDCHAR
STARTCHAR 30C0
ENCODING 12480
SWIDTH 33 0
DWIDTH 1 0
BBX 0 0 0 0
BITMAP
ENDCHAR
STARTCHAR 30C1
ENCODING 12481
SWIDTH 33 0
DWIDTH 1 0
BBX 0 0 0 0
BITMAP
ENDCHAR
STARTCHAR 30C2
ENCODING 12482
SWIDTH 33 0
DWIDTH 1 0
BBX 0 0 0 0
BITMAP
ENDCHAR
STARTCHAR 30C3
ENCODING 12483
SWIDTH 33 0
DWIDTH 1 0
BBX 0 0 0 0
BITMAP
ENDCHAR
STARTCHAR 30C4
ENCODING 12484
SWIDTH 33 0
DWIDTH 1 0
BBX 0 0 0 0
BITMAP
ENDCHAR
STARTCHAR 30C5
ENCODING 12485
SWIDTH 33 0
DWIDTH 1 0
BBX 0 0 0 0
BITMAP
ENDCHAR
STARTCHAR 30C6
ENCODING 12486
SWIDTH 33 0
DWIDTH 1 0
BBX 0 0 0 0
BITMAP
ENDCHAR
STARTCHAR 30C7
ENCODING 12487
SWIDTH 33 0
DWIDTH 1 0
BBX 0 0 0 0
BITMAP
ENDCHAR
STARTCHAR 30C8
ENCODING 12488
SWIDTH 33 0
DWIDTH 1 0
BBX 0 0 0 0
BITMAP
ENDCHAR
STARTCHAR 30C9
ENCODING 12489
SWIDTH 33 0
DWIDTH 1 0
BBX 0 0 0 0
BITMAP
ENDCHAR
STARTCHAR 30CA
ENCODING 12490
SWIDTH 33 0
DWIDTH 1 0
BBX 0 0 0 0
BITMAP
ENDCHAR
STARTCHAR 30CB
ENCODING 12491
SWIDTH 33 0
DWIDTH 1 0
BBX 0 0 0 0
BITMAP
ENDCHAR
STARTCHAR 30CC
ENCODING 12492
SWIDTH 33 0
DWIDTH 1 0
BBX 0 0 0 0
BITMAP
ENDCHAR
STARTCHAR 30CD
ENCODING 12493
SWIDTH 33 0
DWIDTH 1 0
BBX 0 0 0 0
BITMAP
ENDCHAR
STARTCHAR 30CE
ENCODING 12494
SWIDTH 33 0
DWIDTH 1 0
BBX 0 0 0 0
BITMAP
ENDCHAR
STARTCHAR 30CF
ENCODING 12495
SWIDTH 33 0
DWIDTH 1 0
BBX 0 0 0 0
BITMAP
ENDCHAR
STARTCHAR 30D0
ENCODING 12496
SWIDTH 33 0
DWIDTH 1 0
BBX 0 0 0 0
BITMAP
ENDCHAR
STARTCHAR 30D1
ENCODING 12497
SWIDTH 33 0
DWIDTH 1 0
BBX 0 0 0 0
BITMAP
ENDCHAR
STARTCHAR 30D2
ENCODING 12498
SWIDTH 33 0
DWIDTH 1 0
BBX 0 0 0 0
BITMAP
ENDCHAR
STARTCHAR 30D3
ENCODING 12499
SWIDTH 33 0
DWIDTH 1 0
BBX 0 0 0 0
BITMAP
ENDCHAR
STARTCHAR 30D4
ENCODING 12500
SWIDTH 33 0
DWIDTH 1 0
BBX 0 0 0 0
BITMAP
ENDCHAR
STARTCHAR 30D5
ENCODING 12501
SWIDTH 33 0
DWIDTH 1 0
BBX 0 0 0 0
BITMAP
ENDCHAR
STARTCHAR 30D6
ENCODING 12502
SWIDTH 33 0
DWIDTH 1 0
BBX 0 0 0 0
BITMAP
ENDCHAR
STARTCHAR 30D7
ENCODING 12503
SWIDTH 33 0
DWIDTH 1 0
BBX 0 0 0 0
BITMAP
ENDCHAR
STARTCHAR 30D8
ENCODING 12504
SWIDTH 833 0
DWIDTH 25 0
BBX 23 18 0 3
BITMAP
01C000
03E000
07F000
0F7800
0E3C00
1E1E00
3C0F00
780700
700380
F001C0
E000E0
C000F0
800078
00003C
00001E
00000E
000006
000002
ENDCHAR
STARTCHAR 30D9
ENCODING 12505
SWIDTH 833 0
DWIDTH 25 0
BBX 23 20 0 3
BITMAP
00001C
0001CE
01C1CE
03E0E0
07F000
0F7800
0E3C00
1E1E00
3C0F00
780700
700380
F001C0
E000E0
C000F0
800078
00003C
00001E
00000E
000006
000002
ENDCHAR
STARTCHAR 30DA
ENCODING 12506
SWIDTH 833 0
DWIDTH 25 0
BBX 23 20 0 3
BITMAP
00003C
00007E
01C066
03E066
07F07E
0F783C
0E3C00
1E1E00
3C0F00
780700
700380
F001C0
E000E0
C000F0
800078
00003C
00001E
00000E
000006
000002
ENDCHAR
STARTCHAR 30DB
ENCODING 12507
SWIDTH 33 0
DWIDTH 1 0
BBX 0 0 0 0
BITMAP
ENDCHAR
STARTCHAR 30DC
ENCODING 12508
SWIDTH 33 0
DWIDTH 1 0
BBX 0 0 0 0
BITMAP
ENDCHAR
STARTCHAR 30DD
ENCODING 12509
SWIDTH 33 0
DWIDTH 1 0
BBX 0 0 0 0
BITMAP
ENDCHAR
STARTCHAR 30DE
ENCODING 12510
SWIDTH 33 0
DWIDTH 1 0
BBX 0 0 0 0
BITMAP
ENDCHAR
STARTCHAR 30DF
ENCODING 12511
SWIDTH 33 0
DWIDTH 1 0
BBX 0 0 0 0
BITMAP
ENDCHAR
STARTCHAR 30E0
ENCODING 12512
SWIDTH 33 0
DWIDTH 1 0
BBX 0 0 0 0
BITMAP
ENDCHAR
STARTCHAR 30E1
ENCODING 12513
SWIDTH 33 0
DWIDTH 1 0
BBX 0 0 0 0
BITMAP
ENDCHAR
STARTCHAR 30E2
ENCODING 12514
SWIDTH 33 0
DWIDTH 1 0
BBX 0 0 0 0
BITMAP
ENDCHAR
STARTCHAR 30E3
ENCODING 12515
SWIDTH 33 0
DWIDTH 1 0
BBX 0 0 0 0
BITMAP
ENDCHAR
STARTCHAR 30E4
ENCODING 12516
SWIDTH 33 0
DWIDTH 1 0
BBX 0 0 0 0
BITMAP
ENDCHAR
STARTCHAR 30E5
ENCODING 12517
SWIDTH 33 0
DWIDTH 1 0
BBX 0 0 0 0
BITMAP
ENDCHAR
STARTCHAR 30E6
ENCODING 12518
SWIDTH 33 0
DWIDTH 1 0
BBX 0 0 0 0
BITMAP
ENDCHAR
STARTCHAR 30E7
ENCODING 12519
SWIDTH 33 0
DWIDTH 1 0
BBX 0 0 0 0
BITMAP
ENDCHAR
STARTCHAR 30E8
ENCODING 12520
SWIDTH 33 0
DWIDTH 1 0
BBX 0 0 0 0
BITMAP
ENDCHAR
STARTCHAR 30E9
ENCODING 12521
SWIDTH 33 0
DWIDTH 1 0
BBX 0 0 0 0
BITMAP
ENDCHAR
STARTCHAR 30EA
ENCODING 12522
SWIDTH 33 0
DWIDTH 1 0
BBX 0 0 0 0
BITMAP
ENDCHAR
STARTCHAR 30EB
ENCODING 12523
SWIDTH 33 0
DWIDTH 1 0
BBX 0 0 0 0
BITMAP
ENDCHAR
STARTCHAR 30EC
ENCODING 12524
SWIDTH 33 0
DWIDTH 1 0
BBX 0 0 0 0
BITMAP
ENDCHAR
STARTCHAR 30ED
ENCODING 12525
SWIDTH 33 0
DWIDTH 1 0
BBX 0 0 0 0
BITMAP
ENDCHAR
STARTCHAR 30EE
ENCODING 12526
SWIDTH 33 0
DWIDTH 1 0
BBX 0 0 0 0
BITMAP
ENDCHAR
STARTCHAR 30EF
ENCODING 12527
SWIDTH 33 0
DWIDTH 1 0
BBX 0 0 0 0
BITMAP
ENDCHAR
STARTCHAR 30F0
ENCODING 12528
SWIDTH 33 0
DWIDTH 1 0
BBX 0 0 0 0
BITMAP
ENDCHAR
STARTCHAR 30F1
ENCODING 12529
SWIDTH 33 0
DWIDTH 1 0
BBX 0 0 0 0
BITMAP
ENDCHAR
STARTCHAR 30F2
ENCODING 12530
SWIDTH 33 0
DWIDTH 1 0
BBX 0 0 0 0
BITMAP
ENDCHAR
STARTCHAR 30F3
ENCODING 12531
SWIDTH 33 0
DWIDTH 1 0
BBX 0 0 0 0
BITMAP
ENDCHAR
STARTCHAR 30F4
ENCODING 12532
SWIDTH 33 0
DWIDTH 1 0
BBX 0 0 0 0
BITMAP
ENDCHAR
STARTCHAR 30F5
ENCODING 12533
SWIDTH 33 0
DWIDTH 1 0
BBX 0 0 0 0
BITMAP
ENDCHAR
STARTCHAR 30F6
ENCODING 12534
SWIDTH 33 0
DWIDTH 1 0
BBX 0 0 0 0
BITMAP
ENDCHAR
STARTCHAR 30F7
ENCODING 12535
SWIDTH 33 0
DWIDTH 1 0
BBX 0 0 0 0
BITMAP
ENDCHAR
STARTCHAR 30F8
ENCODING 12536
SWIDTH 33 0
DWIDTH 1 0
BBX 0 0 0 0
BITMAP
ENDCHAR
STARTCHAR 30F9
ENCODING 12537
SWIDTH 33 0
DWIDTH 1 0
BBX 0 0 0 0
BITMAP
ENDCHAR
STARTCHAR 30FA
ENCODING 12538
SWIDTH 33 0
DWIDTH 1 0
BBX 0 0 0 0
BITMAP
ENDCHAR
STARTCHAR 30FB
ENCODING 12539
SWIDTH 833 0
DWIDTH 25 0
BBX 5 5 10 9
BITMAP
70
F8
F8
F8
70
ENDCHAR
STARTCHAR 30FC
ENCODING 12540
SWIDTH 833 0
DWIDTH 25 0
BBX 20 3 2 11
BITMAP
FFFFF0
FFFFF0
FFFFF0
ENDCHAR
STARTCHAR 30FD
ENCODING 12541
SWIDTH 33 0
DWIDTH 1 0
BBX 0 0 0 0
BITMAP
ENDCHAR
STARTCHAR 30FE
ENCODING 12542
SWIDTH 33 0
DWIDTH 1 0
BBX 0 0 0 0
BITMAP
ENDCHAR
STARTCHAR 30FF
ENCODING 12543
SWIDTH 33 0
DWIDTH 1 0
BBX 0 0 0 0
BITMAP
ENDCHAR
STARTCHAR FF01
ENCODING 65281
SWIDTH 833 0
DWIDTH 25 0
BBX 3 24 10 -1
BITMAP
E0
E0
E0
E0
E0
E0
E0
E0
E0
E0
E0
E0
E0
E0
E0
E0
E0
E0
00
00
00
E0
E0
E0
ENDCHAR
STARTCHAR FFFD
ENCODING 65533
SWIDTH 633 0
DWIDTH 19 0
BBX 17 17 0 0
BITMAP
FFFF80
FFFF80
FFFF80
E00380
E00380
E00380
E00380
E00380
E00380
E00380
E00380
E00380
E00380
E00380
FFFF80
FFFF80
FFFF80
ENDCHAR
ENDFONT
